<svg width="31" height="30" viewBox="0 0 31 30" fill="none" xmlns="http://www.w3.org/2000/svg">
<g id="instagram">
<path id="Vector" d="M22.175 6.825C21.8783 6.825 21.5883 6.91297 21.3416 7.0778C21.095 7.24262 20.9027 7.47689 20.7892 7.75097C20.6756 8.02506 20.6459 8.32666 20.7038 8.61764C20.7617 8.90861 20.9046 9.17588 21.1143 9.38566C21.3241 9.59544 21.5914 9.7383 21.8824 9.79618C22.1733 9.85406 22.4749 9.82435 22.749 9.71082C23.0231 9.59729 23.2574 9.40503 23.4222 9.15836C23.587 8.91168 23.675 8.62167 23.675 8.325C23.675 7.92718 23.517 7.54564 23.2357 7.26434C22.9544 6.98304 22.5728 6.825 22.175 6.825ZM27.925 9.85C27.9007 8.81287 27.7064 7.78675 27.35 6.8125C27.0322 5.97892 26.5375 5.2241 25.9 4.6C25.281 3.95928 24.5245 3.46772 23.6875 3.1625C22.7158 2.7952 21.6886 2.59651 20.65 2.575C19.325 2.5 18.9 2.5 15.5 2.5C12.1 2.5 11.675 2.5 10.35 2.575C9.31144 2.59651 8.28418 2.7952 7.3125 3.1625C6.4771 3.47081 5.72117 3.96195 5.1 4.6C4.45928 5.21897 3.96772 5.97555 3.6625 6.8125C3.2952 7.78418 3.09651 8.81144 3.075 9.85C3 11.175 3 11.6 3 15C3 18.4 3 18.825 3.075 20.15C3.09651 21.1886 3.2952 22.2158 3.6625 23.1875C3.96772 24.0245 4.45928 24.781 5.1 25.4C5.72117 26.038 6.4771 26.5292 7.3125 26.8375C8.28418 27.2048 9.31144 27.4035 10.35 27.425C11.675 27.5 12.1 27.5 15.5 27.5C18.9 27.5 19.325 27.5 20.65 27.425C21.6886 27.4035 22.7158 27.2048 23.6875 26.8375C24.5245 26.5323 25.281 26.0407 25.9 25.4C26.5403 24.7782 27.0354 24.0227 27.35 23.1875C27.7064 22.2132 27.9007 21.1871 27.925 20.15C27.925 18.825 28 18.4 28 15C28 11.6 28 11.175 27.925 9.85ZM25.675 20C25.6659 20.7935 25.5222 21.5796 25.25 22.325C25.0504 22.869 24.7298 23.3605 24.3125 23.7625C23.9071 24.1756 23.4165 24.4955 22.875 24.7C22.1296 24.9722 21.3435 25.1159 20.55 25.125C19.3 25.1875 18.8375 25.2 15.55 25.2C12.2625 25.2 11.8 25.2 10.55 25.125C9.72611 25.1404 8.90574 25.0136 8.125 24.75C7.60723 24.5351 7.13919 24.216 6.75 23.8125C6.33511 23.4109 6.01855 22.919 5.825 22.375C5.51982 21.6189 5.35055 20.8149 5.325 20C5.325 18.75 5.25 18.2875 5.25 15C5.25 11.7125 5.25 11.25 5.325 10C5.3306 9.18882 5.47869 8.38493 5.7625 7.625C5.98256 7.09739 6.32033 6.62707 6.75 6.25C7.12977 5.82021 7.59911 5.47887 8.125 5.25C8.88694 4.97505 9.69 4.83135 10.5 4.825C11.75 4.825 12.2125 4.75 15.5 4.75C18.7875 4.75 19.25 4.75 20.5 4.825C21.2935 4.8341 22.0796 4.97781 22.825 5.25C23.393 5.46082 23.9029 5.80356 24.3125 6.25C24.7221 6.63397 25.0422 7.10342 25.25 7.625C25.5278 8.38617 25.6716 9.18972 25.675 10C25.7375 11.25 25.75 11.7125 25.75 15C25.75 18.2875 25.7375 18.75 25.675 20ZM15.5 8.5875C14.2323 8.58997 12.9937 8.96816 11.9408 9.67427C10.8879 10.3804 10.068 11.3827 9.58454 12.5547C9.10111 13.7266 8.9759 15.0156 9.22474 16.2587C9.47358 17.5017 10.0853 18.6432 10.9826 19.5387C11.8799 20.4343 13.0225 21.0438 14.2661 21.2902C15.5096 21.5366 16.7983 21.4089 17.9693 20.9232C19.1403 20.4375 20.1411 19.6155 20.8452 18.5613C21.5492 17.507 21.925 16.2677 21.925 15C21.9267 14.1564 21.7615 13.3208 21.439 12.5412C21.1166 11.7616 20.6432 11.0535 20.0461 10.4576C19.449 9.86161 18.7399 9.3896 17.9597 9.06866C17.1796 8.74773 16.3436 8.5842 15.5 8.5875ZM15.5 19.1625C14.6767 19.1625 13.872 18.9184 13.1874 18.461C12.5029 18.0036 11.9694 17.3535 11.6544 16.5929C11.3393 15.8323 11.2569 14.9954 11.4175 14.1879C11.5781 13.3805 11.9745 12.6388 12.5567 12.0567C13.1388 11.4745 13.8805 11.0781 14.6879 10.9175C15.4954 10.7569 16.3323 10.8393 17.0929 11.1544C17.8535 11.4694 18.5036 12.0029 18.961 12.6874C19.4184 13.372 19.6625 14.1767 19.6625 15C19.6625 15.5466 19.5548 16.0879 19.3456 16.5929C19.1365 17.0979 18.8299 17.5568 18.4433 17.9433C18.0568 18.3299 17.5979 18.6365 17.0929 18.8456C16.5879 19.0548 16.0466 19.1625 15.5 19.1625Z" fill="white"/>
</g>
</svg>
