<svg xmlns="http://www.w3.org/2000/svg" width="261" height="181" viewBox="0 0 261 181" fill="none">
    <path
        d="M258.615 150.907C257.004 148.157 254.39 145.833 250.794 143.943C247.199 142.052 241.227 140.155 232.878 138.245C229.506 137.5 227.373 136.714 226.486 135.887C225.565 135.088 225.112 134.193 225.125 133.204C225.139 131.849 225.714 130.711 226.859 129.783C227.996 128.848 229.682 128.401 231.903 128.428C234.612 128.462 236.717 129.119 238.241 130.406C239.758 131.693 240.746 133.733 241.186 136.531L259.245 135.691C258.534 129.254 256.117 124.539 252 121.544C247.883 118.55 241.863 116.998 233.948 116.903C230.759 116.863 227.908 117.032 225.383 117.391V116.937L174.085 116.307L174.01 122.378C168.736 118.57 162.256 116.28 155.227 116.199C148.429 116.117 142.091 118.103 136.83 121.551L136.898 116.212L117.147 115.968L116.876 138.326L95.3912 138.062L95.662 115.704L75.9988 115.467L75.816 130.731C74.0352 126.937 71.5434 123.868 68.3271 121.524C62.3686 117.188 53.661 114.952 42.2043 114.81C32.8737 114.695 25.5068 115.779 20.117 118.055C14.7272 120.338 10.6713 123.509 7.95609 127.574C5.23411 131.639 3.84604 135.975 3.79187 140.582C3.70385 147.601 6.243 153.401 11.4093 157.994C16.5283 162.581 25.1479 166.321 37.2614 169.2C44.6554 170.921 49.3681 172.716 51.3791 174.573C52.8755 175.955 53.8099 177.465 54.1756 179.105L94.8833 179.606L95.2016 153.76L116.686 154.024L116.375 179.871L136.126 180.115L136.201 174.085C141.38 177.662 147.664 179.803 154.462 179.891C161.491 179.979 168.031 177.845 173.394 174.173L173.32 180.121L225.552 180.758V180.46C227.908 180.778 230.481 180.961 233.305 180.995C239.304 181.07 244.287 180.264 248.255 178.577C252.223 176.89 255.324 174.383 257.566 171.056C259.8 167.73 260.951 164.078 260.999 160.101C261.039 156.72 260.254 153.651 258.642 150.894L258.615 150.907ZM66.587 153.943C61.38 151.205 52.7401 148.462 40.6672 145.704C35.7853 144.627 32.7044 143.489 31.4111 142.289C30.084 141.131 29.4204 139.837 29.4408 138.407C29.4611 136.449 30.3007 134.796 31.9461 133.455C33.5914 132.107 36.029 131.456 39.2453 131.497C43.159 131.544 46.2128 132.5 48.4134 134.363C50.6072 136.226 52.0291 139.18 52.6724 143.224L75.667 142.161L75.4436 160.69C73.1955 158.136 70.2501 155.887 66.5802 153.949L66.587 153.943ZM154.618 166.111C145.044 165.995 137.243 158.692 136.492 149.505L136.532 146.138C137.514 136.978 145.484 129.864 155.058 129.979C165.208 130.101 173.374 138.306 173.252 148.265C173.13 158.224 164.775 166.226 154.618 166.104V166.111ZM193.105 130.176L208.069 130.359C207.642 131.775 207.412 133.224 207.399 134.722C207.371 136.802 207.683 138.733 208.326 140.508L192.983 140.318L193.105 130.176ZM240.076 166.984C238.579 168.251 236.467 168.861 233.738 168.834C230.075 168.787 227.272 167.499 225.335 164.966C224.143 163.4 223.365 161.138 223.006 158.17L204.778 159.092C204.961 161.592 205.435 163.922 206.18 166.077L192.671 165.914L192.827 153.333L222.62 153.699L222.64 152.195C224.976 153.035 227.604 153.807 230.535 154.505C235.648 155.697 238.898 156.93 240.293 158.218C241.687 159.505 242.371 160.948 242.351 162.56C242.331 164.247 241.572 165.731 240.076 166.991V166.984Z"
        fill="white" />
    <path
        d="M111.134 108.733L116.585 91.0498L154.273 91.5105L159.425 109.322L259.38 110.542L260.342 31.9105L227.069 31.504L226.432 83.665L207.893 83.4414L208.881 2.41869L175.683 2.01219L175.012 56.7342L155.133 1.76151L118.921 1.32113L97.7408 55.6909C94.7412 53.8074 91.1051 52.3237 86.8393 51.2397C91.9447 49.5391 95.8313 47.195 98.5059 44.1936C102.514 39.695 104.559 34.2682 104.64 27.9132C104.735 20.3387 102.04 13.943 96.5558 8.74658C91.078 3.55012 83.1558 0.880756 72.7961 0.758805L10.6578 0L9.34416 107.493L111.134 108.733ZM136.289 29.4037L147.678 68.1908L124.087 67.8995L136.295 29.4037H136.289ZM43.7684 31.4565L43.8835 22.1883L58.5429 22.3644C63.5738 22.4254 67.0948 23.3468 69.099 25.1354C71.1033 26.9172 72.0919 29.3766 72.0512 32.4999C72.0106 35.8739 70.9611 38.4416 68.9162 40.1963C66.8646 41.9578 63.2488 42.8047 58.0757 42.737L53.6677 42.6828L51.8124 42.6624L43.6397 42.5608L43.7752 31.443L43.7684 31.4565ZM43.3824 63.035V62.8927L51.5551 62.9944V63.1366L60.2357 63.245C66.0453 63.3128 70.1012 64.3358 72.4033 66.2938C74.6987 68.2518 75.8295 70.8195 75.7889 73.997C75.7483 77.4184 74.543 80.1284 72.1731 82.1271C69.8032 84.1257 65.7609 85.0878 60.0461 85.02L43.1184 84.81L43.3824 63.035Z"
        fill="white" />
    <path d="M227.677 0.79794L227.393 24.0414L260.664 24.4481L260.948 1.20468L227.677 0.79794Z" fill="#F1562C" />
    <path
        d="M166.427 148.191C166.345 154.695 161.091 159.898 154.692 159.823C148.287 159.742 143.161 154.41 143.242 147.906C143.324 141.402 148.578 136.199 154.984 136.273C161.389 136.348 166.515 141.686 166.433 148.184L166.427 148.191Z"
        fill="#F1562C" />
    <path
        d="M0 175.86C0.0677109 176.748 0.162506 177.608 0.277615 178.462L27.1792 178.794C26.8338 177.507 26.563 176.084 26.3734 174.532L0 175.86Z"
        fill="white" />
</svg>