<svg width="132" height="28" viewBox="0 0 132 28" fill="none" xmlns="http://www.w3.org/2000/svg">
<g id="Layer 1">
<path id="Vector" d="M14.7347 27.8435C11.185 27.845 7.77255 26.4713 5.21321 24.0105C2.65387 21.5497 1.14647 18.193 1.00717 14.6445C0.867873 11.0959 2.10751 7.63128 4.46607 4.97725C6.82463 2.32322 10.1188 0.686023 13.6578 0.40906C17.1967 0.132097 20.7053 1.23689 23.4477 3.4917C26.1901 5.74652 27.9532 8.97616 28.3671 12.5032C28.7811 16.0302 27.8138 19.5806 25.6681 22.4097C23.5224 25.2387 20.365 27.1266 16.8582 27.6773C16.1558 27.7878 15.4458 27.8433 14.7347 27.8435ZM14.7707 0.861795C14.0764 0.861595 13.3832 0.915151 12.6972 1.02198C9.22399 1.56472 6.10857 3.46555 4.03626 6.30632C1.96396 9.14708 1.10452 12.6951 1.64702 16.1698C2.18953 19.6445 4.08953 22.7613 6.92905 24.8345C9.76856 26.9077 13.315 27.7675 16.7882 27.2248C19.3778 26.8198 21.7893 25.6559 23.7178 23.8799C25.6463 22.104 27.0051 19.7959 27.6225 17.2475C28.2399 14.699 28.0881 12.0247 27.1864 9.5625C26.2846 7.10033 24.6734 4.96094 22.5564 3.41479C20.2989 1.75662 17.5714 0.862262 14.7707 0.861795Z" fill="url(#paint0_linear_71_497)"/>
<path id="Vector_2" d="M11.2441 26.7366C9.80388 26.7565 8.39027 26.3474 7.18314 25.5612C5.03955 24.1375 3.80665 21.6046 3.73259 18.4328C3.65854 15.2852 4.73333 11.8772 6.7348 8.83358C8.73628 5.79 11.4663 3.46928 14.3884 2.30391C17.3406 1.12853 20.1507 1.26469 22.3023 2.68836C26.7155 5.6178 26.9177 13.1146 22.7486 19.42C20.7471 22.4636 18.0211 24.7803 15.097 25.9457C13.8744 26.4511 12.5669 26.7195 11.2441 26.7366ZM18.2493 1.96151C16.9839 1.97887 15.7334 2.2371 14.5646 2.7224C11.7165 3.85173 9.07253 6.10838 7.11108 9.07586C5.14964 12.0433 4.10887 15.3592 4.18292 18.4168C4.25298 21.4364 5.40783 23.8392 7.44133 25.1868C9.47482 26.5344 12.1288 26.6465 14.9389 25.5272C17.7489 24.4079 20.4229 22.1392 22.3823 19.1717C26.4053 13.0726 26.2552 5.84607 22.0521 3.0628C20.9211 2.32778 19.5978 1.94454 18.2493 1.96151Z" fill="url(#paint1_linear_71_497)"/>
<path id="Vector_3" d="M19.6663 26.3613C16.2858 26.3613 11.8065 23.0474 8.6362 17.8593C6.74681 14.7677 5.59196 11.4778 5.3838 8.59442C5.17165 5.65897 5.96623 3.48442 7.62145 2.47123C10.9899 0.41081 16.9243 3.96298 20.8512 10.3885C24.7781 16.8141 25.2344 23.7162 21.866 25.7746C21.2021 26.1724 20.44 26.3757 19.6663 26.3613ZM9.8591 2.33307C9.1553 2.32003 8.46193 2.50454 7.85763 2.86569C6.35252 3.77476 5.63999 5.80314 5.84014 8.56238C6.04029 11.3657 7.17512 14.5935 9.02849 17.625C12.1148 22.677 16.4339 25.9248 19.6363 25.9248C20.34 25.9371 21.0332 25.7526 21.6378 25.3921C24.7861 23.4619 24.2637 16.8301 20.4669 10.6228C17.3786 5.57087 13.0615 2.32306 9.8591 2.32306V2.33307Z" fill="url(#paint2_linear_71_497)"/>
<path id="Vector_4" d="M21.1113 23.3602C20.9112 23.3602 20.711 23.3602 20.5109 23.3442C17.6228 23.2101 14.3063 22.1428 11.17 20.3247C4.63919 16.5603 0.946472 10.7154 2.91993 7.29537C3.89064 5.6174 6.04023 4.7624 8.9824 4.90256C11.8685 5.03872 15.187 6.10397 18.3213 7.92211C21.4556 9.74024 24.0455 12.071 25.6067 14.5038C27.1958 16.9807 27.5361 19.2714 26.5654 20.9534C25.6647 22.5152 23.7393 23.3602 21.1113 23.3602ZM11.3882 19.9362C14.4644 21.7123 17.7088 22.7635 20.5249 22.8957C23.2869 23.0238 25.2944 22.2549 26.1771 20.7271C27.0597 19.1993 26.7215 17.0749 25.2284 14.7461C23.7053 12.3733 21.1734 10.0887 18.0971 8.31056C15.0208 6.53248 11.7785 5.48324 8.96238 5.35109C6.20035 5.21693 4.19086 5.99184 3.31021 7.51963C1.46085 10.7234 5.08352 16.2939 11.3882 19.9342V19.9362Z" fill="url(#paint3_linear_71_497)"/>
<path id="Vector_5" d="M41.4124 14.072C41.4124 9.92513 44.6367 6.5752 48.7598 6.5752C51.816 6.5752 54.3279 8.45941 55.4367 11.1806L54.2858 11.495C53.3652 9.27436 51.3357 7.70452 48.7598 7.70452C45.2232 7.68249 42.6072 10.5078 42.6072 14.07C42.6072 17.5261 45.1811 20.3954 48.7598 20.3954C51.3617 20.3954 53.3632 18.8656 54.2858 16.625L55.4367 16.9394C54.3699 19.6185 51.8781 21.5448 48.7598 21.5448C44.5947 21.5488 41.4124 18.1768 41.4124 14.072Z" fill="white"/>
<path id="Vector_6" d="M57.448 6.84668H58.5988V21.5059H57.448V6.84668Z" fill="white"/>
<path id="Vector_7" d="M60.6506 15.9354C60.6456 15.187 60.7886 14.445 61.0714 13.7521C61.3542 13.0592 61.7713 12.4291 62.2985 11.8982C62.8257 11.3672 63.4527 10.9458 64.1433 10.6582C64.834 10.3707 65.5747 10.2226 66.3228 10.2227C69.275 10.2227 71.5567 12.5053 71.8709 15.3106C71.9288 15.6501 71.9356 15.9964 71.8909 16.3378H61.8015C61.8553 17.497 62.3567 18.59 63.2001 19.3867C64.0435 20.1834 65.163 20.6215 66.3228 20.6089C67.1239 20.6121 67.9125 20.4099 68.6133 20.0215C69.3141 19.6331 69.9037 19.0715 70.3258 18.3902L71.4346 18.5785C70.9477 19.5127 70.2141 20.2955 69.3135 20.8416C68.413 21.3878 67.3799 21.6764 66.3268 21.6761C65.5757 21.6778 64.8318 21.5299 64.1383 21.2413C63.4448 20.9526 62.8157 20.5288 62.2874 19.9946C61.7592 19.4603 61.3425 18.8263 61.0615 18.1294C60.7805 17.4326 60.6408 16.6867 60.6506 15.9354ZM70.7401 15.3907C70.5399 13.108 68.7086 11.2659 66.3028 11.2659C65.1717 11.2619 64.0806 11.684 63.2465 12.4484C62.4124 13.2127 61.8965 14.2631 61.8015 15.3907H70.7401Z" fill="white"/>
<path id="Vector_8" d="M73.2317 18.5104C73.1697 16.7083 74.3826 14.9502 78.2554 14.9302L82.0242 14.9082V13.945C82.0242 12.1029 80.2649 11.2238 78.2775 11.2238C76.7283 11.2238 75.0331 11.7464 74.7388 13.4004L73.61 13.4264C73.8102 11.2699 75.8897 10.2227 78.2554 10.2227C80.9554 10.2227 83.133 11.5843 83.133 13.8029V21.5099H82.0242V18.6145C81.688 19.3273 80.371 21.6721 77.2507 21.6721C75.0911 21.6721 73.3158 20.5628 73.2317 18.5104ZM82.0242 15.8513H78.4016C75.1371 15.8733 74.2785 17.359 74.3826 18.5324C74.5087 19.894 75.8277 20.6469 77.3147 20.6469C79.8466 20.6469 82.0242 18.4904 82.0242 15.8513Z" fill="white"/>
<path id="Vector_9" d="M85.3526 10.4073H86.4995V12.9202C87.19 11.014 88.9273 9.98878 91.315 10.3652V11.5806C88.597 10.994 86.4995 12.69 86.4995 15.9558V21.5063H85.3486L85.3526 10.4073Z" fill="white"/>
<path id="Vector_10" d="M92.678 19.3503V18.0087C94.5213 19.6627 96.6969 20.5437 98.6824 20.5437C100.668 20.5437 102.595 19.6206 102.595 17.7164C102.595 16.1025 101.236 15.2655 98.4742 14.6588C95.1238 13.8839 92.716 13.2131 92.716 10.618C92.716 7.9369 95.418 6.6594 98.0539 6.6594C99.9985 6.64538 101.887 7.3119 103.392 8.54361V9.88318C101.937 8.53705 100.036 7.77679 98.0539 7.74868C96.0024 7.74868 93.8669 8.68978 93.8669 10.6581C93.8669 12.3961 95.8343 12.9207 98.4322 13.5074C101.927 14.2823 103.726 15.3496 103.748 17.6743C103.748 20.3975 101.382 21.679 98.6604 21.679C96.2366 21.673 94.3332 20.6678 92.678 19.3503Z" fill="white"/>
<path id="Vector_11" d="M105.365 18.5115C105.303 16.7093 106.516 14.9513 110.389 14.9313L114.158 14.9092V13.9461C114.158 12.1039 112.398 11.2249 110.411 11.2249C108.862 11.2249 107.167 11.7475 106.872 13.4015L105.742 13.4235C105.952 11.267 108.023 10.2197 110.389 10.2197C113.089 10.2197 115.267 11.5813 115.267 13.7999V21.507H114.158V18.6156C113.822 19.3284 112.505 21.6732 109.384 21.6732C107.229 21.6732 105.449 20.5639 105.365 18.5115ZM114.158 15.8523H110.535C107.271 15.8744 106.412 17.3601 106.516 18.5335C106.642 19.8951 107.961 20.648 109.448 20.648C111.98 20.648 114.158 18.4914 114.158 15.8523Z" fill="white"/>
<path id="Vector_12" d="M117.522 6.84668H118.673V21.5059H117.522V6.84668Z" fill="white"/>
<path id="Vector_13" d="M120.725 15.9354C120.72 15.1865 120.863 14.444 121.146 13.7507C121.429 13.0574 121.847 12.4271 122.375 11.896C122.902 11.365 123.53 10.9437 124.221 10.6565C124.913 10.3693 125.654 10.2218 126.403 10.2227C129.355 10.2227 131.637 12.5053 131.951 15.3106C132.009 15.6501 132.016 15.9964 131.971 16.3378H121.881C121.935 17.497 122.437 18.59 123.28 19.3867C124.123 20.1834 125.243 20.6215 126.403 20.6089C127.204 20.6121 127.992 20.4099 128.693 20.0215C129.394 19.6331 129.984 19.0715 130.406 18.3903L131.515 18.5785C131.028 19.5127 130.294 20.2955 129.394 20.8417C128.493 21.3878 127.46 21.6764 126.407 21.6761C125.655 21.6786 124.911 21.5313 124.216 21.243C123.522 20.9547 122.892 20.531 122.364 19.9967C121.835 19.4624 121.417 18.8281 121.136 18.1308C120.855 17.4336 120.715 16.6873 120.725 15.9354ZM130.814 15.3907C130.604 13.108 128.783 11.2659 126.377 11.2659C125.246 11.2619 124.155 11.684 123.32 12.4484C122.486 13.2127 121.971 14.2631 121.875 15.3907H130.814Z" fill="white"/>
</g>
<defs>
<linearGradient id="paint0_linear_71_497" x1="25.433" y1="5.60527" x2="4.08809" y2="22.8078" gradientUnits="userSpaceOnUse">
<stop offset="0.05" stop-color="white" stop-opacity="0"/>
<stop offset="0.07" stop-color="white" stop-opacity="0.04"/>
<stop offset="0.12" stop-color="white" stop-opacity="0.13"/>
<stop offset="0.17" stop-color="white" stop-opacity="0.3"/>
<stop offset="0.24" stop-color="white" stop-opacity="0.52"/>
<stop offset="0.31" stop-color="white" stop-opacity="0.8"/>
<stop offset="0.36" stop-color="white"/>
<stop offset="0.93" stop-color="white"/>
</linearGradient>
<linearGradient id="paint1_linear_71_497" x1="25.7488" y1="14.1258" x2="3.73059" y2="14.1258" gradientUnits="userSpaceOnUse">
<stop offset="0.03" stop-color="white" stop-opacity="0"/>
<stop offset="0.26" stop-color="white"/>
<stop offset="0.58" stop-color="white"/>
</linearGradient>
<linearGradient id="paint2_linear_71_497" x1="3.93473" y1="7.88158" x2="25.5474" y2="20.3541" gradientUnits="userSpaceOnUse">
<stop offset="0.44" stop-color="white" stop-opacity="0"/>
<stop offset="0.52" stop-color="white" stop-opacity="0"/>
<stop offset="1" stop-color="white"/>
</linearGradient>
<linearGradient id="paint3_linear_71_497" x1="9.10249" y1="19.5738" x2="20.3956" y2="8.67392" gradientUnits="userSpaceOnUse">
<stop offset="0.05" stop-color="white" stop-opacity="0"/>
<stop offset="0.08" stop-color="white" stop-opacity="0.11"/>
<stop offset="0.12" stop-color="white" stop-opacity="0.39"/>
<stop offset="0.19" stop-color="white" stop-opacity="0.83"/>
<stop offset="0.22" stop-color="white"/>
<stop offset="1" stop-color="white"/>
</linearGradient>
</defs>
</svg>
