<svg width="55" height="43" viewBox="0 0 55 43" fill="none" xmlns="http://www.w3.org/2000/svg">
<g id="Group">
<g id="Group_2">
<path id="Vector" d="M47.5887 14.1323H44.4382V12.5106C44.4382 11.2198 43.377 10.1607 42.0836 10.1607C40.7903 10.1607 39.7291 11.2198 39.7291 12.5106V14.1323H36.5786V12.5106C36.5786 9.46572 39.0658 7.0166 42.0836 7.0166C45.1346 7.0166 47.5887 9.49882 47.5887 12.5106V14.1323Z" fill="white"/>
<path id="Vector_2" d="M48.8821 14.1328H35.2853C34.6884 14.1328 34.2241 14.5962 34.2241 15.1919V25.2201C34.2241 25.8158 34.6884 26.2791 35.2853 26.2791H48.8821C49.479 26.2791 49.9433 25.8158 49.9433 25.2201V15.1919C49.9101 14.5962 49.4458 14.1328 48.8821 14.1328ZM42.747 20.719V22.0759C42.747 22.44 42.4485 22.7709 42.0505 22.7709C41.6857 22.7709 41.3541 22.4731 41.3541 22.0759V20.719C40.923 20.4873 40.6577 20.0239 40.6577 19.4944C40.6577 18.7332 41.2878 18.1044 42.0505 18.1044C42.8133 18.1044 43.4434 18.7332 43.4434 19.4944C43.4765 20.0239 43.1781 20.4873 42.747 20.719Z" fill="white"/>
<path id="Vector_3" d="M33.8923 12.6432H30.6092C30.0786 12.6432 29.6475 12.213 29.6475 11.6834C29.6475 11.1539 30.0786 10.7236 30.6092 10.7236H33.8923C34.4229 10.7236 34.854 11.1539 34.854 11.6834C34.854 12.213 34.4229 12.6432 33.8923 12.6432Z" fill="white"/>
<path id="Vector_4" d="M36.2137 7.47979C36.0147 7.47979 35.7826 7.41359 35.6167 7.24811L33.03 5.12995C32.6321 4.79899 32.5658 4.20326 32.8974 3.773C33.229 3.37585 33.826 3.30966 34.2571 3.64062L36.8438 5.75878C37.2417 6.08974 37.308 6.68548 36.9764 7.11573C36.7443 7.3474 36.479 7.47979 36.2137 7.47979Z" fill="white"/>
<path id="Vector_5" d="M42.0835 5.22921C41.5529 5.22921 41.1218 4.79896 41.1218 4.26942V0.959792C41.1218 0.430251 41.5529 0 42.0835 0C42.6142 0 43.0453 0.430251 43.0453 0.959792V4.26942C43.0453 4.79896 42.6142 5.22921 42.0835 5.22921Z" fill="white"/>
<path id="Vector_6" d="M47.9202 7.47979C47.6549 7.47979 47.3564 7.3474 47.1906 7.11573C46.859 6.71857 46.9253 6.08974 47.3233 5.75878L49.91 3.64062C50.3079 3.30966 50.938 3.37585 51.2696 3.773C51.6013 4.17016 51.5349 4.79899 51.137 5.12995L48.5503 7.24811C48.3513 7.41359 48.1523 7.47979 47.9202 7.47979Z" fill="white"/>
<path id="Vector_7" d="M53.5248 12.6432H50.2085C49.6779 12.6432 49.2468 12.213 49.2468 11.6834C49.2468 11.1539 49.6779 10.7236 50.2085 10.7236H53.5248C54.0554 10.7236 54.4865 11.1539 54.4865 11.6834C54.4865 12.213 54.0554 12.6432 53.5248 12.6432Z" fill="white"/>
</g>
<path id="Vector_8" d="M0 26.1455V15.4554H2.5867V23.895H6.73204V26.1455H0ZM15.288 22.4718V22.7697V23.0676H9.81618C9.84934 23.2661 9.91567 23.4647 10.0152 23.6302C10.1146 23.7957 10.2473 23.9612 10.4131 24.0604C10.5789 24.1928 10.7779 24.2921 10.9769 24.3583C11.1759 24.4245 11.408 24.4576 11.607 24.4576C12.0049 24.4576 12.3366 24.3914 12.6019 24.2259C12.8672 24.0935 13.0993 23.895 13.2651 23.6633L14.9896 24.7555C14.6248 25.285 14.1605 25.6491 13.5967 25.9469C13.033 26.2117 12.3365 26.3772 11.5738 26.3772C11.01 26.3772 10.4794 26.2779 9.98199 26.1124C9.48455 25.9469 9.05344 25.6822 8.65548 25.3512C8.29069 25.0202 7.99223 24.59 7.76009 24.0935C7.52795 23.5971 7.42846 23.0345 7.42846 22.4056C7.42846 21.7768 7.52795 21.2473 7.76009 20.7508C7.95906 20.2544 8.25753 19.8241 8.62232 19.4932C8.98711 19.1622 9.41823 18.8643 9.91567 18.6988C10.4131 18.5003 10.9437 18.401 11.5075 18.401C12.0712 18.401 12.5687 18.5003 13.033 18.6658C13.4972 18.8643 13.8952 19.1291 14.2268 19.4601C14.5585 19.8241 14.8238 20.2544 14.9896 20.7508C15.1885 21.2804 15.288 21.843 15.288 22.4718ZM12.9998 21.5451C12.9998 21.148 12.8672 20.817 12.635 20.5191C12.4029 20.2213 12.0049 20.0889 11.5075 20.0889C11.2753 20.0889 11.0432 20.122 10.8442 20.1882C10.6452 20.2544 10.4794 20.3537 10.3136 20.486C10.1478 20.6184 10.0483 20.7839 9.94883 20.9494C9.84934 21.1149 9.81618 21.3135 9.78302 21.512H12.9998V21.5451ZM19.2676 20.486V23.3654C19.2676 23.7295 19.3339 23.9942 19.4665 24.1597C19.5992 24.3252 19.8313 24.4245 20.1961 24.4245C20.3288 24.4245 20.4614 24.4245 20.5941 24.3914C20.7267 24.3583 20.8594 24.3252 20.9257 24.2921L20.9589 26.1124C20.7931 26.1786 20.5609 26.2117 20.2956 26.2779C20.0303 26.311 19.765 26.3441 19.4997 26.3441C19.0023 26.3441 18.5711 26.2779 18.2395 26.1455C17.9079 26.0131 17.6094 25.8476 17.4105 25.616C17.2115 25.3843 17.0457 25.0864 16.9793 24.7555C16.913 24.4245 16.8467 24.0604 16.8467 23.6633V20.486H15.6197V18.6327H16.8135V16.6469H19.2676V18.6327H21.0252V20.486H19.2676ZM23.3134 15.2568C22.5838 15.2568 21.9869 15.7864 21.9869 16.4814C21.9869 17.2095 22.4844 17.6729 23.2139 17.6729C23.2803 17.6729 23.3466 17.6729 23.3798 17.6398C23.2471 18.1693 22.7497 18.5665 22.2522 18.6327H22.1527V19.791H22.2854C22.8823 19.7248 23.4461 19.4601 23.8772 19.0629C24.441 18.5334 24.7394 17.7391 24.7394 16.8124C24.7394 15.9188 24.1425 15.2568 23.3134 15.2568ZM29.0506 20.8501C28.8516 20.6515 28.6195 20.486 28.3542 20.3537C28.0889 20.2213 27.7904 20.1551 27.4919 20.1551C27.2598 20.1551 27.0608 20.1882 26.8618 20.2875C26.6629 20.3868 26.5634 20.5191 26.5634 20.7508C26.5634 20.9494 26.6629 21.1149 26.895 21.2142C27.1271 21.3135 27.4588 21.4127 27.9562 21.512C28.2547 21.5782 28.52 21.6444 28.8184 21.7768C29.1169 21.9092 29.3491 22.0416 29.5812 22.2071C29.8133 22.3725 30.0123 22.6042 30.145 22.869C30.2776 23.1337 30.3439 23.4316 30.3439 23.7957C30.3439 24.259 30.2444 24.6562 30.0455 24.9871C29.8465 25.3181 29.6144 25.5829 29.2827 25.7814C28.9843 25.98 28.6195 26.1124 28.2547 26.2117C27.8567 26.311 27.4919 26.3441 27.094 26.3441C26.4639 26.3441 25.867 26.2448 25.3032 26.0462C24.7063 25.8476 24.2088 25.5498 23.844 25.1857L25.2369 23.7295C25.469 23.9612 25.7343 24.1597 26.0659 24.3252C26.3976 24.4907 26.7292 24.5569 27.094 24.5569C27.293 24.5569 27.4919 24.5238 27.6909 24.4245C27.8899 24.3252 27.9894 24.1597 27.9894 23.9281C27.9894 23.6964 27.8567 23.5309 27.6246 23.3985C27.3924 23.2992 26.9945 23.1668 26.4971 23.0676C26.2318 23.0014 25.9664 22.9352 25.7011 22.8359C25.4358 22.7366 25.2037 22.6042 25.0047 22.4387C24.8058 22.2732 24.6399 22.0416 24.5073 21.8099C24.3746 21.5451 24.3083 21.2473 24.3083 20.9163C24.3083 20.4529 24.4078 20.0889 24.6068 19.7579C24.8058 19.427 25.0379 19.1953 25.3364 18.9967C25.6348 18.7981 25.9664 18.6327 26.3312 18.5665C26.696 18.4672 27.0608 18.4341 27.4256 18.4341C27.9894 18.4341 28.5531 18.5334 29.0837 18.6988C29.6144 18.8643 30.0786 19.1291 30.4434 19.4932L29.0506 20.8501ZM0 38.5235V27.8334H7.19632V30.0178H2.48721V32.0366H6.93102V34.0886H2.48721V36.3061H7.46162V38.5235H0ZM13.9947 38.5235V34.4196C13.9947 34.221 13.9615 34.0224 13.9284 33.8238C13.8952 33.6253 13.8289 33.4598 13.7625 33.3274C13.6962 33.195 13.5636 33.0626 13.4309 32.9964C13.2983 32.8971 13.0993 32.864 12.8672 32.864C12.635 32.864 12.436 32.8971 12.2702 32.9964C12.1044 33.0957 11.9718 33.195 11.8391 33.3605C11.7396 33.526 11.6401 33.6915 11.5738 33.89C11.5075 34.0886 11.4743 34.2872 11.4743 34.4858V38.5566H8.98711V31.0438H11.3748V32.0697H11.408C11.5075 31.9043 11.607 31.7388 11.7728 31.6064C11.9054 31.4409 12.1044 31.3085 12.2702 31.2092C12.4692 31.1099 12.6682 31.0107 12.9003 30.9445C13.1325 30.8783 13.3646 30.8452 13.6299 30.8452C14.1273 30.8452 14.5585 30.9445 14.9232 31.1099C15.288 31.2754 15.5533 31.5402 15.7855 31.805C16.0176 32.1028 16.1503 32.4338 16.2498 32.7979C16.3492 33.1619 16.3824 33.526 16.3824 33.9231V38.5566H13.9947V38.5235ZM22.8823 33.4267C22.7497 33.2612 22.5507 33.0957 22.3185 32.9964C22.0864 32.8971 21.8211 32.8309 21.589 32.8309C21.3237 32.8309 21.0915 32.8971 20.8925 32.9964C20.6936 33.0957 20.4946 33.2281 20.3619 33.4267C20.2293 33.6253 20.0966 33.7907 19.9972 34.0224C19.8977 34.2541 19.8645 34.4858 19.8645 34.7505C19.8645 35.0153 19.8977 35.247 19.9972 35.4787C20.0635 35.7103 20.1961 35.9089 20.3619 36.0744C20.5278 36.2399 20.6936 36.4053 20.9257 36.5046C21.1578 36.6039 21.39 36.6701 21.6553 36.6701C21.9206 36.6701 22.1527 36.637 22.418 36.5377C22.6502 36.4384 22.8491 36.3061 23.015 36.1075L24.3746 37.7954C24.0762 38.0933 23.6451 38.3249 23.1808 38.4904C22.6833 38.6559 22.1527 38.7552 21.6221 38.7552C21.0252 38.7552 20.4614 38.6559 19.964 38.4904C19.4334 38.3249 19.0023 38.0602 18.6043 37.6961C18.2395 37.3651 17.9411 36.9349 17.7089 36.4384C17.4768 35.942 17.3773 35.3794 17.3773 34.7505C17.3773 34.1217 17.4768 33.5922 17.7089 33.0957C17.9411 32.5993 18.2395 32.169 18.6043 31.8381C18.9691 31.5071 19.4334 31.2092 19.964 31.0438C20.4946 30.8452 21.0252 30.779 21.6221 30.779C21.8874 30.779 22.1527 30.8121 22.418 30.8452C22.6833 30.9114 22.9486 30.9776 23.1808 31.0438C23.4129 31.143 23.6451 31.2423 23.8772 31.3747C24.0762 31.5071 24.2751 31.6395 24.4078 31.805L22.8823 33.4267ZM30.1118 33.0626C30.0123 33.0295 29.8797 32.9964 29.7802 32.9964H29.4817C29.1501 32.9964 28.8848 33.0626 28.6526 33.1619C28.4205 33.2943 28.2547 33.4267 28.122 33.5922C27.9894 33.7576 27.8899 33.9562 27.8236 34.1548C27.7572 34.3534 27.7241 34.5189 27.7241 34.6843V38.5235H25.2369V31.0107H27.6246V32.1028H27.6577C27.8567 31.7057 28.122 31.4078 28.4868 31.1761C28.8516 30.9445 29.2496 30.8121 29.7138 30.8121H30.0123C30.1118 30.8121 30.1781 30.8452 30.2444 30.8452L30.1118 33.0626ZM35.9484 39.6488C35.7826 40.0459 35.6168 40.3769 35.451 40.7079C35.252 41.0057 35.053 41.2705 34.7877 41.5022C34.5224 41.7338 34.224 41.8662 33.8923 41.9986C33.5607 42.0979 33.1296 42.1641 32.6653 42.1641C32.4332 42.1641 32.201 42.1641 31.9357 42.131C31.7036 42.0979 31.4715 42.0648 31.3057 41.9986L31.571 39.9136C31.7036 39.9466 31.8363 39.9797 31.9689 40.0128C32.1016 40.0459 32.2342 40.0459 32.3669 40.0459C32.7648 40.0459 33.0301 39.9466 33.1959 39.7812C33.3617 39.6157 33.5276 39.3509 33.627 39.0199L33.8592 38.3911L30.7087 31.0107H33.4612L35.1525 35.8427H35.1857L36.678 31.0107H39.2979L35.9484 39.6488ZM48.3513 34.7505C48.3513 35.2801 48.285 35.7765 48.1192 36.273C47.9534 36.7694 47.7212 37.1666 47.4228 37.5637C47.1243 37.9278 46.7263 38.2256 46.2952 38.4573C45.8641 38.689 45.3335 38.7883 44.7697 38.7883C44.3055 38.7883 43.8743 38.689 43.4432 38.5235C43.0453 38.3249 42.7136 38.0933 42.4815 37.7623H42.4483V42.2303H39.9611V31.1099H42.3157V32.0366H42.3489C42.581 31.7388 42.9126 31.474 43.3106 31.2423C43.7085 31.0107 44.206 30.9114 44.7697 30.9114C45.3003 30.9114 45.7978 31.0107 46.2621 31.2423C46.6932 31.4409 47.0911 31.7388 47.3896 32.1028C47.6881 32.4669 47.9202 32.8971 48.086 33.3605C48.2518 33.7246 48.3513 34.221 48.3513 34.7505ZM45.9304 34.7505C45.9304 34.5189 45.8973 34.2872 45.8309 34.0555C45.7646 33.8238 45.632 33.6253 45.4993 33.4598C45.3667 33.2943 45.1677 33.1288 44.9356 33.0295C44.7034 32.9302 44.4713 32.864 44.1728 32.864C43.8743 32.864 43.6422 32.9302 43.4101 33.0295C43.1779 33.1288 43.0121 33.2943 42.8463 33.4598C42.6805 33.6253 42.581 33.8569 42.4815 34.0886C42.382 34.3203 42.3489 34.552 42.3489 34.7836C42.3489 35.0153 42.382 35.247 42.4815 35.4787C42.581 35.7103 42.6805 35.9089 42.8463 36.1075C43.0121 36.273 43.1779 36.4384 43.4101 36.5377C43.6422 36.637 43.8743 36.7032 44.1728 36.7032C44.4713 36.7032 44.7366 36.637 44.9356 36.5377C45.1677 36.4384 45.3335 36.273 45.4993 36.1075C45.632 35.942 45.7646 35.7103 45.8309 35.4787C45.8973 35.2139 45.9304 34.9822 45.9304 34.7505ZM52.2977 32.864V35.7434C52.2977 36.1075 52.364 36.3722 52.4967 36.5377C52.6293 36.7032 52.8615 36.8025 53.2262 36.8025C53.3589 36.8025 53.4915 36.8025 53.6242 36.7694C53.7569 36.7363 53.8895 36.7032 53.9558 36.6701L53.989 38.4904C53.8232 38.5566 53.591 38.5897 53.3257 38.6559C53.0604 38.689 52.7951 38.7221 52.5298 38.7221C52.0324 38.7221 51.6013 38.6559 51.2696 38.5235C50.938 38.3911 50.6395 38.2256 50.4406 37.994C50.2416 37.7623 50.0758 37.4644 50.0095 37.1335C49.9431 36.8025 49.8768 36.4384 49.8768 36.0413V32.864H48.6829V31.0107H49.8768V29.0249H52.2977V31.0107H54.0553V32.864H52.2977Z" fill="white"/>
</g>
</svg>
