<?xml version="1.0" encoding="UTF-8"?>
<svg xmlns="http://www.w3.org/2000/svg" xmlns:xlink="http://www.w3.org/1999/xlink" width="128.8pt" height="78.2pt" viewBox="0 0 128.8 78.2" version="1.1">
<defs>
<clipPath id="clip1">
  <path d="M 8 22 L 128.800781 22 L 128.800781 38 L 8 38 Z M 8 22 "/>
</clipPath>
<clipPath id="clip2">
  <path d="M 120 59 L 128.800781 59 L 128.800781 64 L 120 64 Z M 120 59 "/>
</clipPath>
</defs>
<g id="surface1">
<g clip-path="url(#clip1)" clip-rule="nonzero">
<path style=" stroke:none;fill-rule:evenodd;fill:rgb(0%,0%,0%);fill-opacity:1;" d="M 9.828125 30.707031 C 10.941406 33.121094 10.433594 35.832031 8.40625 37.984375 L 119.714844 35.410156 L 128.390625 28.503906 L 119.136719 22.59375 Z M 9.828125 30.707031 "/>
</g>
<path style=" stroke:none;fill-rule:evenodd;fill:rgb(0%,0%,0%);fill-opacity:1;" d="M 20.9375 42.175781 C 23.871094 42.046875 26.195313 41.878906 29.738281 41.785156 C 30.839844 41.757813 30.691406 42.421875 30.332031 42.925781 C 30.125 43.21875 29.925781 43.523438 29.792969 43.859375 C 29.496094 44.613281 29.832031 44.78125 30.429688 45.089844 C 50.464844 55.351563 68.328125 51.691406 68.808594 42.015625 C 68.835938 41.390625 68.859375 40.957031 70.046875 40.960938 C 83.074219 41.011719 96.097656 40.433594 109.121094 40.167969 C 100.941406 51.605469 46.78125 66.769531 20.9375 42.175781 Z M 20.9375 42.175781 "/>
<path style=" stroke:none;fill-rule:evenodd;fill:rgb(0%,0%,0%);fill-opacity:1;" d="M 19.859375 25.898438 C 22.792969 25.753906 25.152344 25.429688 28.6875 25.1875 C 29.785156 25.113281 29.570313 24.464844 29.167969 24.003906 C 28.933594 23.726563 28.707031 23.441406 28.542969 23.121094 C 28.179688 22.398438 28.488281 22.183594 29.0625 21.839844 C 48.042969 10.34375 66.171875 12.136719 67.558594 21.285156 C 67.652344 21.902344 67.710938 22.339844 68.890625 22.222656 C 81.855469 20.941406 94.878906 20.292969 107.871094 19.332031 C 98.648438 8.714844 42.046875 -0.0820313 19.859375 25.898438 Z M 19.859375 25.898438 "/>
<path style=" stroke:none;fill-rule:evenodd;fill:rgb(0%,0%,0%);fill-opacity:1;" d="M 62.914063 76.792969 L 66.59375 63.847656 C 68.246094 58.054688 78.15625 58.089844 79.8125 61.492188 C 83.488281 57.867188 93.066406 59.070313 91.742188 63.730469 L 88.03125 76.792969 L 81.078125 76.792969 L 84.761719 63.832031 C 85.074219 62.734375 82.722656 62.753906 82.417969 63.828125 L 78.742188 76.792969 L 71.910156 76.792969 L 75.667969 63.535156 C 75.941406 62.566406 74.066406 62.585938 73.773438 63.628906 L 70.039063 76.792969 Z M 62.914063 76.792969 "/>
<path style=" stroke:none;fill-rule:evenodd;fill:rgb(0%,0%,0%);fill-opacity:1;" d="M 0.0429688 76.792969 L 3.722656 63.847656 C 5.371094 58.054688 15.285156 58.089844 16.9375 61.492188 C 20.617188 57.867188 30.191406 59.070313 28.867188 63.730469 L 25.160156 76.792969 L 18.207031 76.792969 L 21.886719 63.832031 C 22.199219 62.734375 19.847656 62.753906 19.542969 63.828125 L 15.867188 76.792969 L 9.035156 76.792969 L 12.792969 63.535156 C 13.070313 62.566406 11.195313 62.585938 10.898438 63.628906 L 7.164063 76.792969 Z M 0.0429688 76.792969 "/>
<path style=" stroke:none;fill-rule:evenodd;fill:rgb(0%,0%,0%);fill-opacity:1;" d="M 28.179688 72.804688 L 30.996094 62.953125 C 32.484375 57.730469 48.777344 57.734375 47.277344 62.953125 L 44.441406 72.800781 C 42.894531 78.15625 26.664063 78.101563 28.179688 72.804688 Z M 34.9375 72.792969 L 37.664063 63.023438 C 38.304688 60.722656 41.097656 60.90625 40.488281 63.070313 L 37.753906 72.804688 C 37.148438 74.960938 34.527344 74.414063 34.9375 72.792969 Z M 34.9375 72.792969 "/>
<path style=" stroke:none;fill-rule:evenodd;fill:rgb(0%,0%,0%);fill-opacity:1;" d="M 45.53125 76.792969 L 50.519531 59.316406 L 61.570313 59.316406 C 65.617188 59.316406 66.292969 61.351563 64.664063 64.671875 L 57.800781 65.242188 L 58.59375 62.472656 C 58.871094 61.503906 56.992188 61.433594 56.699219 62.472656 L 52.65625 76.792969 Z M 45.53125 76.792969 "/>
<path style=" stroke:none;fill-rule:evenodd;fill:rgb(0%,0%,0%);fill-opacity:1;" d="M 93.628906 76.792969 L 105.957031 76.792969 L 109.867188 63.019531 C 111.125 58.585938 95.558594 57.441406 93.753906 63.828125 L 100.109375 63.828125 C 100.71875 61.671875 103.617188 61.316406 102.90625 63.828125 L 102.554688 65.0625 C 99.125 66.390625 93.273438 65.511719 92.269531 69.050781 L 91.078125 73.242188 C 90.679688 74.640625 92.175781 76.792969 93.628906 76.792969 Z M 97.273438 73.707031 L 98.625 68.957031 C 98.953125 67.808594 100.835938 67.953125 101.914063 67.214844 L 100.027344 73.851563 C 99.699219 75.003906 96.859375 75.148438 97.273438 73.707031 Z M 97.273438 73.707031 "/>
<path style=" stroke:none;fill-rule:evenodd;fill:rgb(0%,0%,0%);fill-opacity:1;" d="M 108.074219 76.792969 L 111.523438 64.667969 L 118.335938 64.667969 L 114.886719 76.792969 Z M 108.074219 76.792969 "/>
<path style=" stroke:none;fill-rule:evenodd;fill:rgb(0%,0%,0%);fill-opacity:1;" d="M 111.953125 63.144531 L 118.761719 63.144531 L 119.851563 59.316406 L 113.042969 59.316406 Z M 111.953125 63.144531 "/>
<path style=" stroke:none;fill-rule:evenodd;fill:rgb(0%,0%,0%);fill-opacity:1;" d="M 117.058594 76.792969 L 120.507813 64.667969 L 127.320313 64.667969 L 123.871094 76.792969 Z M 117.058594 76.792969 "/>
<g clip-path="url(#clip2)" clip-rule="nonzero">
<path style=" stroke:none;fill-rule:evenodd;fill:rgb(0%,0%,0%);fill-opacity:1;" d="M 120.9375 63.144531 L 127.746094 63.144531 L 128.835938 59.316406 L 122.023438 59.316406 Z M 120.9375 63.144531 "/>
</g>
</g>
</svg>
