<svg width="30" height="18" viewBox="0 0 30 18" fill="none" xmlns="http://www.w3.org/2000/svg">
<path d="M0 17.2644H0.672322V15.918C0.672322 15.6779 0.672323 15.3824 0.794092 15.2091C0.91525 15.0207 1.13285 14.9594 1.25431 14.9594C1.82073 14.9594 1.82073 15.6329 1.82073 15.8669V17.2644H2.49275V15.7345C2.49275 15.5147 2.49275 15.041 2.23517 14.7301C2.00293 14.4438 1.63335 14.3361 1.39103 14.3361C0.96591 14.3361 0.733359 14.5719 0.622272 14.679V14.4334H0V17.2644Z" fill="black"/>
<path fill-rule="evenodd" clip-rule="evenodd" d="M5.5504 16.1525C5.57573 16.0404 5.58924 15.9259 5.59069 15.8109C5.59069 15.0977 5.02914 14.321 4.13922 14.321C3.27433 14.321 2.66274 15.0564 2.66274 15.8567C2.66274 16.6826 3.31004 17.3564 4.14441 17.3564C4.80178 17.3564 5.33769 16.8824 5.49943 16.3723H4.79141C4.66506 16.6069 4.44288 16.734 4.14441 16.734C3.66405 16.734 3.40098 16.3363 3.37046 16.1522L5.5504 16.1525ZM3.35032 15.6068C3.47667 15.0813 3.8966 14.9437 4.14441 14.9437C4.47829 14.9437 4.82681 15.1528 4.9028 15.6068H3.35032Z" fill="black"/>
<path d="M6.45375 17.2644H6.86758L7.3986 15.4285H7.40867L7.93512 17.2644H8.34956L9.3759 14.4334H8.6581L8.14173 16.1627H8.13196L7.67632 14.4334H7.14103L6.68081 16.1627H6.67074L6.16016 14.4334H5.44206L6.45375 17.2644Z" fill="black"/>
<path fill-rule="evenodd" clip-rule="evenodd" d="M10.6775 17.2644H11.294V16.9227C11.4603 17.1117 11.699 17.3564 12.2401 17.3564C13.2661 17.3564 13.6354 16.4028 13.6354 15.8358C13.6354 15.0872 13.0793 14.3364 12.2248 14.3364C11.9111 14.3364 11.5821 14.4543 11.3495 14.6892V13.4902H10.6775V17.2644ZM11.3089 15.8112C11.3089 15.3981 11.6276 14.9594 12.1433 14.9594C12.5684 14.9594 12.963 15.2903 12.963 15.842C12.963 16.392 12.5938 16.7343 12.1537 16.7343C11.7594 16.7343 11.3089 16.4388 11.3089 15.8112ZM16.7748 14.4334H16.1574V14.7914H16.1473C16.1269 14.7501 15.7878 14.3361 15.2171 14.3361C14.4386 14.3361 13.8111 14.9638 13.8111 15.8315C13.8111 16.7746 14.4536 17.3564 15.1769 17.3564C15.5303 17.3564 15.9453 17.1671 16.1574 16.9135V17.2644H16.7748V14.4334ZM16.1379 15.842C16.1379 16.3671 15.7833 16.734 15.3178 16.734C14.8378 16.734 14.4835 16.3412 14.4835 15.862C14.4835 15.4387 14.7667 14.9594 15.3178 14.9594C15.7176 14.9594 16.1379 15.2549 16.1379 15.842Z" fill="black"/>
<path d="M17.8045 13.4902H17.1322V17.2644H17.8045V13.4902Z" fill="black"/>
<path fill-rule="evenodd" clip-rule="evenodd" d="M20.9696 14.4334H20.3531V14.7914H20.3424C20.322 14.7501 19.9829 14.3361 19.4122 14.3361C18.6328 14.3361 18.0062 14.9638 18.0062 15.8315C18.0062 16.7746 18.6486 17.3564 19.3716 17.3564C19.7256 17.3564 20.1398 17.1671 20.3528 16.9135V17.2644H20.9696V14.4334ZM20.3323 15.842C20.3323 16.3671 19.9786 16.734 19.5132 16.734C19.0326 16.734 18.6789 16.3412 18.6789 15.862C18.6789 15.4387 18.9621 14.9594 19.5132 14.9594C19.913 14.9594 20.3323 15.2549 20.3323 15.842Z" fill="black"/>
<path d="M21.3276 17.2644H21.9996V15.918C21.9996 15.6779 21.9996 15.3824 22.1216 15.2091C22.2425 15.0207 22.4607 14.9594 22.5816 14.9594C23.1477 14.9594 23.1477 15.6329 23.1477 15.8669V17.2644H23.8206V15.7345C23.8206 15.5147 23.8206 15.041 23.5621 14.7301C23.3296 14.4439 22.9609 14.3361 22.718 14.3361C22.2929 14.3361 22.0609 14.5719 21.9492 14.679V14.4334H21.3276V17.2644ZM26.2099 16.3412C26.0329 16.6269 25.8107 16.734 25.5882 16.734C25.0819 16.734 24.7435 16.3311 24.7435 15.8466C24.7435 15.2651 25.1482 14.9591 25.5574 14.9591C25.9725 14.9591 26.1293 15.2294 26.2099 15.3719H26.9689C26.6805 14.4996 25.9111 14.3361 25.5574 14.3361C24.7838 14.3361 24.0712 14.9696 24.0712 15.8358C24.0712 16.7746 24.8439 17.3564 25.5629 17.3564C26.2203 17.3564 26.7409 16.9735 26.9689 16.3412H26.2099Z" fill="black"/>
<path fill-rule="evenodd" clip-rule="evenodd" d="M29.96 16.1525C29.9799 16.0611 30 15.9432 30 15.8109C30 15.0977 29.4391 14.321 28.5492 14.321C27.6843 14.321 27.0724 15.0564 27.0724 15.8567C27.0724 16.6826 27.7197 17.3564 28.554 17.3564C29.2111 17.3564 29.7476 16.8824 29.9091 16.3723H29.2013C29.0747 16.6069 28.8528 16.734 28.5543 16.734C28.0734 16.734 27.8106 16.3363 27.781 16.1522L29.96 16.1525ZM27.7602 15.6068C27.8869 15.0813 28.3065 14.9437 28.554 14.9437C28.8882 14.9437 29.2367 15.1528 29.3124 15.6068H27.7602ZM11.4454 7.88092L10.5466 9.44647L5.57207 9.16418L6.06983 8.29216L11.4454 7.88092ZM15.0417 2.89243L15.4924 4.62022L8.43349 4.15233L8.93124 3.2806L15.0417 2.89243ZM10.3619 0.774658L14.4942 0.777739L14.8057 1.95914L9.8648 1.6464L10.3619 0.774658ZM9.99878 10.4201L9.28159 11.6643L4.14106 11.6698L4.63881 10.7987L9.99878 10.4201ZM19.0234 7.06336L17.7792 9.23868H18.9642C19.5135 9.23868 20.4971 8.96227 20.7999 8.17365C21.0807 7.44104 20.5649 7.06242 20.2051 7.06242L19.0234 7.06336ZM20.21 4.98252L21.2436 4.97635C21.9315 4.97235 22.649 4.655 22.9115 4.01105C23.1535 3.41388 22.8282 2.90475 22.3969 2.9066L21.3971 2.90538L20.21 4.98252ZM15.5315 4.62022L16.5752 2.79395L20.1074 2.56523L20.2307 2.34361L16.9631 2.11305L17.7273 0.774658H23.787C25.6505 0.774658 27.029 1.44633 26.4931 3.42251C26.332 4.02121 25.5745 5.52827 23.3531 6.1596C23.8246 6.21624 24.9989 6.74137 24.7966 8.10192C24.4371 10.5143 21.3401 11.6627 19.6176 11.6633L12.4631 11.6667L12.1107 10.2708L15.8577 10.0042L15.985 9.78322L11.9208 9.53389L11.4829 7.87876L17.2662 7.53831L17.3916 7.31915L7.00217 6.65796L7.49992 5.78683L18.6831 5.05423L18.8098 4.83475L15.5315 4.62022Z" fill="black"/>
</svg>
