<svg width="30" height="31" viewBox="0 0 30 31" fill="none" xmlns="http://www.w3.org/2000/svg">
<path d="M27.7081 0.0655518H2.29186L0 2.35742V27.7737L2.29186 30.0656H27.7081L30 27.7737V2.35742L27.7081 0.0655518ZM18.175 15.931H11.6475L6.11476 7.41151H11.1947L14.9636 13.3593L18.8147 6.63187C19.8213 4.88683 21.2712 5.00439 21.865 5.00439H24.452L18.175 15.931ZM9.44848 20.4466H10.5221L8.11384 25.1291L5.69732 20.4466H6.778L8.11384 23.0394L9.44848 20.4466ZM11.424 20.4466H14.6848V21.3873H12.3836V22.2187H13.8347V23.1594H12.3836V23.9826H14.6848V24.9233H11.424V20.4466ZM16.096 20.4783H18.1268C18.6888 20.4783 19.12 20.6284 19.4203 20.9287C19.5494 21.0633 19.6498 21.2228 19.7154 21.3975C19.7809 21.5721 19.8101 21.7583 19.8013 21.9447V21.9576C19.8152 22.2718 19.7224 22.5814 19.5379 22.836C19.36 23.064 19.121 23.237 18.8488 23.3346L19.9342 24.9209H18.7923L17.8398 23.4992H17.072V24.9209H16.0948L16.096 20.4783ZM18.0633 22.6432C18.2632 22.6569 18.461 22.5957 18.6183 22.4715C18.6824 22.4138 18.733 22.3426 18.7665 22.2632C18.8 22.1838 18.8157 22.0979 18.8123 22.0117V22C18.8187 21.9098 18.8036 21.8194 18.7682 21.7362C18.7328 21.653 18.6782 21.5794 18.6089 21.5214C18.4443 21.4056 18.2453 21.3492 18.0444 21.3614H17.0732V22.6432H18.0633ZM21.972 21.3802H20.6197V20.4795H24.3015V21.3802H22.9504V24.9221H21.972V21.3802Z" fill="#231F20"/>
</svg>
