<svg width="30" height="13" viewBox="0 0 30 13" fill="none" xmlns="http://www.w3.org/2000/svg">
<path d="M1.26235 11.2411H0.808598L0.72196 10.2653H1.17571L1.26235 11.2411ZM28.7376 11.2411H29.1914L29.278 10.2653H28.8242L28.7376 11.2411ZM0.453802 10.2653H0L0.0866375 11.2411H0.540439L0.453802 10.2653ZM29.4596 11.2411H29.9134L30 10.2653H29.5462L29.4596 11.2411ZM3.55899 11.4786C3.55899 11.8236 3.31283 12.1173 2.94213 12.1173C2.57467 12.1173 2.32173 11.8167 2.32173 11.4717V11.4649C2.32173 11.1199 2.56775 10.8262 2.93511 10.8262C3.306 10.8262 3.55899 11.1268 3.55899 11.4717V11.4786ZM1.63202 11.4786C1.63202 12.1652 2.18654 12.7151 2.93511 12.7151C3.68372 12.7151 4.24522 12.1583 4.24522 11.4717V11.4649C4.24522 10.7783 3.69074 10.2284 2.94213 10.2284C2.19342 10.2284 1.63202 10.7851 1.63202 11.4717V11.4786ZM4.66343 12.6673H5.33576V11.8133H6.48296V11.2634H5.33576V10.8569H6.6043V10.2762H4.66343V12.6673ZM6.99566 12.6673H7.66805V11.8133H8.81519V11.2634H7.66805V10.8569H8.93648V10.2762H6.99566V12.6673ZM10.8286 12.6673H11.5008V10.8569H12.2287V10.2763H10.1007V10.8569H10.8286V12.6673ZM12.67 12.6673H13.3425V11.7587H14.2054V12.6673H14.8778V10.2762H14.2054V11.1712H13.3425V10.2762H12.67V12.6673ZM15.3335 12.6673H17.3022V12.1036H15.999V11.7246H17.1635V11.2019H15.999V10.8398H17.2848V10.2762H15.3335L15.3335 12.6673ZM19.1492 12.6844H19.7349L20.2201 11.3078L20.7088 12.6844H21.2945L22.1056 10.2762H21.4089L20.9861 11.6596L20.5181 10.2694H19.9394L19.4715 11.6596L19.0487 10.2762H18.3382L19.1492 12.6844ZM22.8919 11.7246L23.1657 11.0448L23.436 11.7246H22.8919ZM21.814 12.6673H22.521L22.6943 12.2404H23.6301L23.8069 12.6673H24.5277L23.4949 10.2592H22.8468L21.814 12.6673ZM24.8498 12.6673H26.6971V12.0866H25.5222V10.2762H24.8498V12.6673ZM27.0713 12.6673H28.9185V12.0866H27.7437V10.2762H27.0713V12.6673Z" fill="#231F20"/>
<path d="M26.0067 4.25996H24.7028C24.5763 3.93894 24.4353 3.68849 23.7042 3.68849C23.1996 3.68849 22.9846 3.89686 22.9846 4.10637C22.9846 4.33482 23.1642 4.52764 23.7211 4.65141L24.9022 4.96737C25.6752 5.17456 26.0505 5.78969 26.0505 6.43966C26.0505 6.80123 25.9725 7.23821 25.6301 7.59555C25.3742 7.86259 24.9873 8.21496 23.7042 8.21496C21.9398 8.21496 21.3599 7.09677 21.3599 6.42101H22.7337C22.8688 6.91438 23.2064 7.10223 23.8756 7.10223C24.3389 7.10223 24.7368 6.93653 24.7368 6.58105C24.7368 6.243 24.4488 6.11578 24.0764 6.01376L23.1433 5.76124C22.6934 5.62393 22.3173 5.51404 22.0517 5.28844C21.3564 4.69787 21.407 3.6313 22.1632 3.07671C22.5818 2.76986 23.0108 2.60962 23.6918 2.60962C24.4919 2.60962 24.9484 2.83866 25.3086 3.08714C25.6276 3.30728 26.0067 3.8384 26.0067 4.25996ZM3.98381 0.479431C3.99446 0.526284 6.7132 8.15069 6.7132 8.15069H8.33515L10.8335 1.80649H26.3506L26.4684 0.479432H9.64104L7.56764 5.73978L5.70089 0.479431H3.98381ZM17.4042 5.40818L19.4298 8.15069H20.6972V2.7265H19.2343V5.6765L17.397 2.7265H15.9964V8.15069H17.4042V5.40818ZM26.5263 7.86894C26.5263 7.71125 26.4008 7.58148 26.2396 7.58148C26.0784 7.58148 25.9513 7.71283 25.9513 7.87056C25.9513 8.02819 26.0768 8.15797 26.2381 8.15797C26.3993 8.15797 26.5263 8.02662 26.5263 7.86894ZM26.493 7.86894C26.493 8.01067 26.3834 8.12613 26.2381 8.12613C26.0935 8.12613 25.9846 8.01225 25.9846 7.87056C25.9846 7.72882 26.0943 7.61332 26.2396 7.61332C26.3842 7.61332 26.493 7.7272 26.493 7.86894ZM26.3762 7.80924C26.3762 7.74551 26.3294 7.70805 26.2563 7.70805H26.1205V8.01466H26.1879V7.91594H26.2412L26.3063 8.01466H26.385L26.3103 7.90476C26.3492 7.89044 26.3762 7.85939 26.3762 7.80924ZM26.3079 7.81323C26.3079 7.83951 26.2896 7.85781 26.2555 7.85781H26.1879V7.7678H26.2539C26.2872 7.7678 26.3079 7.78296 26.3079 7.81323ZM9.67192 8.15069H11.2281L11.5186 7.30214H13.5783L13.8764 8.15069H15.4085L13.448 2.7265H11.7997L9.67192 8.15069ZM11.9534 6.32081L12.5561 4.51765L13.1511 6.32081H11.9534Z" fill="#231F20"/>
</svg>
