<svg width="30" height="18" viewBox="0 0 30 18" fill="none" xmlns="http://www.w3.org/2000/svg">
<path d="M3.06606 3.47039C3.51483 3.46277 3.94304 3.28141 4.26032 2.96464C4.57759 2.64788 4.75911 2.22049 4.76648 1.77271C4.76691 1.55331 4.72324 1.33605 4.63803 1.13379C4.55282 0.931526 4.42782 0.748365 4.27042 0.595158C4.11301 0.441951 3.92642 0.321806 3.72165 0.24183C3.51689 0.161854 3.29805 0.123681 3.07823 0.129556C2.62911 0.136242 2.20027 0.31714 1.88255 0.63395C1.56484 0.95076 1.38324 1.37856 1.37626 1.82669C1.37641 2.04609 1.4205 2.26325 1.50601 2.46538C1.59151 2.66752 1.71669 2.85054 1.87414 3.00369C2.03159 3.15685 2.21821 3.27704 2.4229 3.35718C2.62759 3.43733 2.84624 3.47583 3.06606 3.47039Z" fill="#231F20"/>
<path d="M9.15533 3.47038C9.60375 3.46259 10.0316 3.28109 10.3483 2.96427C10.665 2.64745 10.8458 2.22014 10.8525 1.7727C10.8524 1.55339 10.8084 1.33632 10.723 1.13426C10.6376 0.93219 10.5125 0.749189 10.3551 0.596076C10.1978 0.442964 10.0114 0.32281 9.80677 0.242684C9.60218 0.162557 9.3836 0.124102 9.16387 0.129537C8.71506 0.136893 8.28663 0.318043 7.96923 0.634739C7.65183 0.951435 7.47031 1.37885 7.46294 1.82667C7.46307 2.0463 7.50727 2.26367 7.59294 2.46598C7.67861 2.66829 7.80399 2.85145 7.96172 3.00464C8.11945 3.15783 8.30626 3.27795 8.51126 3.35794C8.71626 3.43793 8.93529 3.47617 9.15533 3.47038Z" fill="#231F20"/>
<path d="M28.8487 10.4749C28.1917 10.023 27.447 9.7138 26.6626 9.56729L24.4726 9.05663C23.9092 8.95119 23.3596 8.78233 22.8343 8.55334C22.6589 8.47252 22.5114 8.34183 22.4102 8.17762C22.3091 8.01342 22.2588 7.82305 22.2657 7.63043C22.2594 7.4181 22.3101 7.20794 22.4127 7.02181C22.5153 6.83567 22.6659 6.68037 22.8491 6.57203C23.3363 6.2904 23.8949 6.15514 24.4573 6.18253C24.9799 6.16628 25.4993 6.26964 25.9757 6.48469C26.264 6.61989 26.508 6.83401 26.6792 7.10214C26.8503 7.37026 26.9416 7.68137 26.9425 7.99926V8.77879H29.5944V7.88709H29.5913C29.585 7.31453 29.4462 6.75117 29.1859 6.24089C28.9255 5.73062 28.5506 5.2872 28.0903 4.94525C27.085 4.23316 25.8752 3.86601 24.6429 3.89902C23.0379 3.89902 21.8027 4.27319 20.9689 5.01036C20.9567 5.02201 20.9435 5.0331 20.9329 5.04421V4.25623H18.1356V11.8942C18.1737 12.5167 18.0725 13.1398 17.8392 13.7183C17.538 14.3777 16.8718 14.7111 15.8567 14.7111C14.8415 14.7111 14.1673 14.3777 13.8656 13.7147C13.6334 13.1371 13.5324 12.5154 13.5697 11.8942V4.25888H10.7746V5.96715C10.6008 5.74267 10.4076 5.53373 10.1975 5.3427C9.24543 4.37426 7.85116 3.88316 6.05583 3.88316C4.2605 3.88316 2.86665 4.37372 1.91886 5.33898C0.645957 6.47888 0 8.20673 0 10.4722C0 12.6949 0.644854 14.4217 1.91511 15.6055C2.86979 16.5739 4.26155 17.0655 6.05635 17.0655C7.85114 17.0655 9.24447 16.5739 10.1933 15.6081C10.5642 15.2583 10.884 14.8582 11.1432 14.4195C11.212 14.6194 11.2973 14.8133 11.3983 14.999C12.1806 16.3543 13.6789 17.0412 15.8534 17.0412C17.9389 17.0412 19.399 16.4062 20.2025 15.1583C20.4122 15.4484 20.6623 15.7074 20.9451 15.9272C22.0903 16.726 23.4711 17.1182 24.8662 17.0412C26.4849 17.0412 27.7572 16.6607 28.6483 15.9082C29.0753 15.565 29.4183 15.1293 29.6517 14.6342C29.885 14.1391 30.0024 13.5976 29.9949 13.0505C30.0231 12.5612 29.9337 12.0722 29.7344 11.6242C29.535 11.1762 29.2314 10.7822 28.8487 10.4749ZM20.9244 12.0567C20.9244 12.0344 20.9244 11.9243 20.9244 11.9021V10.4886C20.9472 10.5072 20.97 10.5236 20.995 10.5416C21.8539 11.0155 22.7881 11.3387 23.7566 11.4973L25.108 11.7889C25.703 11.8904 26.2792 12.0819 26.8164 12.3567C26.9751 12.4426 27.1069 12.5706 27.1972 12.7265C27.2876 12.8825 27.3328 13.0604 27.3281 13.2405C27.3358 13.5555 27.2338 13.8633 27.0395 14.1117C26.8452 14.3601 26.5707 14.5336 26.2626 14.6026C25.7742 14.7467 25.266 14.8126 24.7569 14.7979C23.737 14.7979 23.0066 14.5502 22.5935 14.0628C22.3322 13.7065 22.1737 13.2856 22.1352 12.8457V12.0572L20.9244 12.0567ZM8.44991 13.6379C8.16413 13.996 7.7981 14.2821 7.38125 14.4732C6.9644 14.6643 6.50843 14.755 6.05 14.7381C5.58964 14.7539 5.13184 14.6626 4.71292 14.4715C4.294 14.2803 3.92543 13.9946 3.63624 13.6368C3.04415 12.6873 2.73035 11.5913 2.73035 10.473C2.73035 9.3547 3.04415 8.25874 3.63624 7.30921C3.92497 6.95082 4.29341 6.66454 4.71241 6.4731C5.13141 6.28165 5.58944 6.1903 6.05 6.20633C6.50895 6.18956 6.96533 6.28093 7.38229 6.473C7.79925 6.66507 8.16501 6.95245 8.44991 7.31186C9.03485 8.26356 9.34453 9.35821 9.34453 10.4746C9.34453 11.591 9.03485 12.6862 8.44991 13.6379Z" fill="#231F20"/>
</svg>
