<svg width="30" height="16" viewBox="0 0 30 16" fill="none" xmlns="http://www.w3.org/2000/svg">
<path fill-rule="evenodd" clip-rule="evenodd" d="M29.0916 8.05481L29.1288 9.43938L30 9.50827L29.8593 8.03682L29.0916 8.05481ZM26.8948 7.51781L27.1428 10.216L28.149 10.1486L27.8444 7.43363L26.8948 7.51781ZM24.4082 6.09031L25.2751 11.6614L26.2379 11.3908L25.4744 5.87863L24.4082 6.09031ZM19.0073 8.3028C19.8761 8.45424 20.7448 8.6057 21.6135 8.75716C21.7305 8.63541 21.8475 8.51367 21.9645 8.39192C22.0102 8.49519 22.0559 8.59849 22.1016 8.7018C22.4108 8.60095 22.72 8.50012 23.0291 8.39931C22.7278 7.3032 22.4265 6.20709 22.1252 5.11101C22.4091 5.35501 22.6905 5.58847 22.965 5.79255C23.2606 5.6795 23.5562 5.56642 23.8518 5.45337C23.0968 4.60845 22.3191 3.77403 21.6763 2.87749C22.7664 2.9276 23.8565 2.97768 24.9465 3.02776C25.0231 2.78483 25.0997 2.54188 25.1762 2.29894C23.8266 2.20354 22.477 2.10809 21.1274 2.01264C20.9021 1.66546 20.6768 1.31826 20.4515 0.971084C20.2288 1.0466 20.0061 1.12214 19.7834 1.19764C19.7511 1.43722 19.7187 1.67677 19.6864 1.91635C19.2097 1.88456 18.733 1.8528 18.2562 1.82104C18.1156 2.04354 17.975 2.26604 17.8343 2.48852C18.4963 2.5369 19.1582 2.5853 19.8201 2.63371C19.832 3.37274 19.7569 4.11269 19.6223 4.85325C19.943 4.74611 20.2637 4.63897 20.5844 4.53184C20.6578 4.16003 20.7312 3.78821 20.8046 3.41642C21.1162 3.82277 21.4277 4.22914 21.7393 4.63551C21.5113 4.72895 21.2833 4.82235 21.0554 4.91577C21.3183 5.94965 21.5812 6.98354 21.8442 8.01741C21.168 7.55761 20.8443 6.77087 20.6646 5.85056C20.3914 5.9583 20.1182 6.06603 19.845 6.17375C19.8579 6.72143 20.0099 7.22921 20.2573 7.70964C19.8759 7.63499 19.4945 7.56032 19.1131 7.48568C18.9783 6.15906 18.6164 4.97736 18.1513 3.86153C17.9125 4.03481 17.6738 4.20812 17.435 4.38138C17.7223 5.19818 17.984 6.02508 18.122 6.90076C17.9938 6.85988 17.8657 6.819 17.7375 6.7781C17.0005 5.92942 16.2635 5.08073 15.5265 4.23208C15.3074 4.34837 15.0884 4.46462 14.8694 4.58087C14.8794 5.2908 14.8893 6.00073 14.8992 6.71066C14.4891 6.62978 14.0286 6.6215 13.5177 6.68581C13.9657 6.05059 14.1135 5.64541 13.998 5.38593C13.7539 4.83767 12.9055 4.89279 12.1764 5.09391C11.2619 5.34613 10.5273 5.8903 9.88113 6.57977C10.2007 6.60847 10.5203 6.63715 10.8399 6.66584C10.9141 6.55117 11.0072 6.48462 11.103 6.42496C11.2337 6.68284 11.3645 6.94074 11.4952 7.19859C11.4188 7.37308 11.2882 7.4826 11.1036 7.52713C11.0846 7.65768 11.0657 7.78824 11.0467 7.91878C11.3398 7.94911 11.6016 7.92852 11.8319 7.85703C12.0199 8.17148 12.2078 8.4859 12.3958 8.80036C12.3159 8.83804 12.219 8.83198 12.1195 8.81966C12.0939 8.94223 12.0684 9.06487 12.0428 9.18746C13.1315 9.31543 14.1509 8.97714 15.0135 8.23082C15.0385 8.36165 15.0197 8.5216 15.0446 8.65242C15.3179 8.58507 15.5911 8.51776 15.8643 8.45047C15.8798 8.19468 15.8953 7.93894 15.9107 7.68314C16.3157 7.65705 16.7208 7.63096 17.1257 7.60487C17.3645 7.92388 17.6033 8.24287 17.8421 8.56187C17.6108 8.61092 17.3795 8.65995 17.1481 8.70899L16.7898 11.4854L16.0595 8.59387L15.0856 8.80394L15.4334 10.0746L14.0615 10.1332L13.7351 9.36027L12.9156 9.50154L13.1113 10.2628L11.0858 10.2627L10.4894 10.6719L13.381 10.9315L13.7496 12.1545L14.471 12.0044L14.2393 10.9094L15.5623 10.8464L16.2728 13.4056L17.2023 13.3238L17.0317 12.4656L17.6747 12.4572L17.8358 11.9429L19.1054 11.9246L19.9644 13.3734L20.9236 13.3273L20.6623 12.5833L24.6734 13.5648L24.9367 12.8282L23.0708 12.3302L22.2879 10.0289L23.4925 10.1866L23.7618 9.56627L19.2588 9.0959L19.2464 9.7889L21.0717 10.0023L21.8468 12.022L20.1861 11.625L18.6336 9.08939L19.3072 8.73669L19.0073 8.3028ZM15.8574 6.11332C16.0521 6.35121 16.2832 6.62547 16.478 6.86337C16.2681 6.87762 16.0391 6.8835 15.8292 6.89771C15.8444 6.64558 15.8422 6.36543 15.8574 6.11332ZM13.022 7.65827C13.1861 7.91955 13.3502 8.18081 13.5144 8.44209C14.2675 8.18558 14.5182 7.89956 14.4632 7.6995C14.388 7.42533 13.7387 7.31258 13.022 7.65827ZM12.1022 5.95925C12.2384 6.1926 12.3746 6.42591 12.5108 6.65928C12.9909 6.40892 13.1666 6.07 13.0833 5.87569C13 5.68133 12.6579 5.63152 12.1022 5.95925ZM18.0418 10.2482L17.9623 11.0783L18.6172 11.1206L18.0418 10.2482ZM0.485301 13.5385L1.42763 15.16L2.10596 14.7549L1.18428 13.2343L0.485301 13.5385ZM6.36583 12.2598C6.12321 12.271 5.8806 12.2823 5.63799 12.2936C5.85068 11.4321 6.42447 10.7824 7.24533 10.2778C4.90849 10.1044 3.062 10.2231 1.98618 10.688C1.03691 11.0983 0.703405 11.7764 0.937724 12.7859C0.669362 12.8774 0.401028 12.9691 0.132676 13.0606C-0.23701 11.5017 0.135719 10.4967 1.63254 9.91502C3.63767 9.13562 6.36788 9.40963 8.41458 9.3784C6.29848 8.23195 6.05395 7.32519 5.69933 6.40427C5.89219 6.22735 6.08507 6.05037 6.27795 5.87341C7.44321 7.74197 8.92019 9.18946 11.5106 9.13323C11.466 9.35656 11.4214 9.57989 11.3768 9.80321C10.8404 9.64069 10.7399 9.87638 10.243 10.1851C7.70568 10.3242 7.09234 11.3171 6.36583 12.2598Z" fill="#1F1A17"/>
</svg>
