<svg width="30" height="25" viewBox="0 0 30 25" fill="none" xmlns="http://www.w3.org/2000/svg">
<path d="M2.82523 0.963252C2.6419 0.963252 2.46412 1.67162 2.10301 2.0258C1.80301 2.3191 1.50301 2.3191 1.32524 2.61241C1.20301 2.73416 1.26968 2.96659 1.20301 3.14369C1.02524 3.55874 0.480793 3.61408 0.480793 4.02914C0.480793 4.49954 0.903014 4.61575 1.32524 4.9146C1.62524 5.2079 1.68635 5.38499 2.04746 5.50121C2.3419 5.61743 2.82523 5.26324 3.2419 5.38499C3.5419 5.50121 3.90856 5.56208 3.96412 5.91627C4.01967 6.27045 3.96412 6.74085 3.5419 6.67997C3.42523 6.67997 2.81968 6.44754 2.0419 6.56376C1.14746 6.67997 0.125238 6.97328 0.00301582 7.97495C-0.0525396 8.5671 0.669681 9.21459 1.32524 9.0375C1.80301 8.98215 1.56412 8.39001 1.80301 8.15204C2.16412 7.79786 4.02523 9.3308 5.76412 9.3308C6.11143 9.34608 6.45791 9.28565 6.77936 9.15374C7.10081 9.02184 7.38948 8.82163 7.62522 8.5671C7.68078 8.51176 7.74189 8.45088 7.803 8.45088C7.85856 8.45088 7.98078 8.50622 8.04189 8.56156C9.48633 9.68499 10.503 11.9872 15.7197 11.9872C16.4419 11.9872 17.2752 12.3414 17.9419 12.9833C18.5363 13.5201 18.8974 14.4 19.2585 15.2855C19.7974 16.5805 20.703 17.881 22.1363 19.2922C22.1974 19.353 23.3974 20.2938 23.4585 20.3547C23.4585 20.3547 23.5752 20.5927 23.5141 20.648C23.5141 21.5335 23.3363 24.0072 25.1974 24.129C25.6752 24.129 25.5585 23.8301 25.5585 23.5977C25.5585 23.1826 25.4974 22.7122 25.6752 22.3027C25.9752 21.7106 25.0141 21.4173 25.0141 20.1168C25.0141 19.1206 24.2363 19.2922 23.8196 18.5285C23.5752 18.1134 23.3363 17.881 23.3974 17.3497C23.5196 14.3447 22.7363 12.3967 22.3752 11.9263C22.0752 11.5721 21.8363 11.395 22.1363 11.2179C23.6974 10.2218 24.0585 9.21459 24.0585 9.21459C24.8919 7.27212 25.6141 5.50674 26.6363 4.73197C26.8752 4.56041 27.3585 4.20623 27.7141 4.02914C28.6752 3.55874 29.1585 3.32078 29.453 3.02747C29.8752 2.61241 30.2307 1.72696 29.8141 1.20122C29.2752 0.548195 28.3752 1.07947 27.9585 1.3119C25.0752 3.02747 24.6585 5.97161 23.6974 7.68164C22.9196 9.0375 21.6585 10.0392 20.4585 10.1554C19.6196 10.2163 18.6585 10.0447 17.7585 9.62964C15.4808 8.62797 14.2808 7.38834 13.9808 7.15037C13.3808 6.67997 8.703 2.08114 4.86412 1.90405C4.86412 1.90405 4.38634 0.963252 4.26412 0.963252C3.96412 0.907911 3.72523 1.54987 3.48634 1.61074C3.36412 1.61074 3.00301 0.902377 2.81968 0.963252" fill="#231F20"/>
</svg>
