<svg width="42" height="25" viewBox="0 0 42 25" fill="none" xmlns="http://www.w3.org/2000/svg">
<g id="Group 34">
<rect id="Rectangle 69" x="0.94165" width="41.0583" height="24.635" rx="2" fill="white"/>
<g id="AmEx Logo">
<path fill-rule="evenodd" clip-rule="evenodd" d="M42.0001 19.0694V21.8974H38.5362L37.256 20.3446L35.9257 21.8974H26.086V13.6304H22.8396L26.8976 4.10547H30.8468L31.8007 6.26548V4.10547H36.7038L37.5238 6.36958L38.327 4.10547H42.0001V5.45005H39.1637L37.8752 8.97203L37.5321 9.92623L35.8839 5.45005H33.0474V12.3898L30.1022 5.45005H27.818L24.8561 12.3898H26.7973L27.316 11.054H30.5624L31.0812 12.3898H33.0474H34.7543V7.87032L34.7459 6.95945L35.0806 7.87032L36.7122 12.3898H38.3354L39.9753 7.87032L40.2933 6.96814V12.3898H42.0001V15.1051L40.1092 17.0742L42.0001 19.0694ZM27.4582 20.5528V13.639H33.0474V15.1398H29.1651V16.3542H32.9721V17.8463H29.1651V19.0521H33.0474V20.5528H27.4582ZM41.4814 20.5528H39.2641L37.2393 18.2974L35.2061 20.5528H33.0474L36.1683 17.1089L33.0474 13.639H35.273L37.2811 15.8858L39.2976 13.639H41.4814L38.3521 17.0829L41.4814 20.5528Z" fill="black"/>
<path d="M28.9392 6.93343L28.6045 7.80094L27.91 9.55319H29.9683L29.2739 7.80094L28.9392 6.93343Z" fill="black"/>
</g>
</g>
</svg>
