<svg width="42" height="25" viewBox="0 0 42 25" fill="none" xmlns="http://www.w3.org/2000/svg">
<g id="Group 35">
<rect id="Rectangle 67" x="0.401855" width="41.0583" height="24.635" rx="2" fill="white"/>
<g id="Vector">
<path d="M11.4809 6.84375H10.3075V11.6805H11.4809V6.84375Z" fill="black"/>
<path d="M12.2144 6.84375H11.8505V11.6805H12.2144V6.84375Z" fill="black"/>
<path d="M13.1818 6.84375H12.5314V11.6805H13.1818V6.84375Z" fill="black"/>
<path d="M14.1739 6.84375H13.8101V11.6805H14.1739V6.84375Z" fill="black"/>
<path d="M14.6126 6.84375H14.3318V11.6805H14.6126V6.84375Z" fill="black"/>
<path d="M9.77871 6.84375H9.41488V17.7926H9.77871V6.84375Z" fill="black"/>
<path d="M9.26397 6.84375H8.61353V17.7926H9.26397V6.84375Z" fill="black"/>
<path d="M17.7279 6.84375H16.5546V11.6805H17.7279V6.84375Z" fill="black"/>
<path d="M18.4626 6.84375H18.0988V11.6805H18.4626V6.84375Z" fill="black"/>
<path d="M19.4289 6.84375H18.7785V11.6805H19.4289V6.84375Z" fill="black"/>
<path d="M20.421 6.84375H20.0571V11.6805H20.421V6.84375Z" fill="black"/>
<path d="M20.8597 6.84375H20.5789V11.6805H20.8597V6.84375Z" fill="black"/>
<path d="M16.0269 6.84375H15.6631V11.6805H16.0269V6.84375Z" fill="black"/>
<path d="M15.511 6.84375H14.8606V11.6805H15.511V6.84375Z" fill="black"/>
<path d="M21.971 6.84375H21.3206V11.6805H21.971V6.84375Z" fill="black"/>
<path d="M22.9631 6.84375H22.5992V11.6805H22.9631V6.84375Z" fill="black"/>
<path d="M23.4018 6.84375H23.121V11.6805H23.4018V6.84375Z" fill="black"/>
<path d="M24.8161 6.84375H24.4523V11.6805H24.8161V6.84375Z" fill="black"/>
<path d="M24.3002 6.84375H23.6498V11.6805H24.3002V6.84375Z" fill="black"/>
<path d="M25.6631 6.84375H25.2993V11.6805H25.6631V6.84375Z" fill="black"/>
<path d="M26.1018 6.84375H25.821V11.6805H26.1018V6.84375Z" fill="black"/>
<path d="M27.5162 6.84375H27.1523V11.6805H27.5162V6.84375Z" fill="black"/>
<path d="M27.0003 6.84375H26.3498V11.6805H27.0003V6.84375Z" fill="black"/>
<path d="M29.0066 6.84375H27.8332V11.6805H29.0066V6.84375Z" fill="black"/>
<path d="M29.7401 6.84375H29.3763V11.6805H29.7401V6.84375Z" fill="black"/>
<path d="M30.7076 6.84375H30.0571V11.6805H30.7076V6.84375Z" fill="black"/>
<path d="M31.6984 6.84375H31.3346V11.6805H31.6984V6.84375Z" fill="black"/>
<path d="M32.1371 6.84375H31.8564V11.6805H32.1371V6.84375Z" fill="black"/>
<path d="M33.2485 6.84375H32.5981V17.7926H33.2485V6.84375Z" fill="black"/>
<path d="M13.5246 14.6276C13.7855 14.4982 13.9797 14.3291 14.1084 14.1193C14.2371 13.9095 14.3014 13.6868 14.3014 13.4501C14.3014 13.1937 14.2289 12.95 14.0826 12.7169C13.9376 12.4826 13.7364 12.31 13.4802 12.1969C13.2216 12.085 12.8812 12.0291 12.4554 12.0291H10.3648V17.5805H12.4905C12.8461 17.5805 13.1456 17.549 13.3901 17.4872C13.6334 17.4254 13.837 17.3333 13.9996 17.2132C14.1622 17.092 14.2979 16.9195 14.4079 16.6968C14.5178 16.473 14.574 16.2317 14.574 15.9705C14.574 15.6476 14.4827 15.3667 14.3014 15.13C14.1212 14.8922 13.8615 14.7243 13.5246 14.6264V14.6276ZM11.103 12.6807H12.2167C12.6156 12.6807 12.8987 12.7064 13.0637 12.7588C13.2286 12.8101 13.355 12.9081 13.4439 13.048C13.5328 13.1878 13.5773 13.3499 13.5773 13.5352C13.5773 13.7299 13.5293 13.892 13.4345 14.0214C13.3398 14.1508 13.1982 14.244 13.011 14.2988C12.8695 14.342 12.6343 14.3629 12.308 14.3629H11.103V12.6807ZM13.7001 16.4415C13.6264 16.5767 13.5328 16.6805 13.4182 16.7516C13.3035 16.8227 13.1608 16.8728 12.9923 16.9031C12.8952 16.9218 12.7279 16.93 12.4893 16.93H11.1018V15.0146H12.391C12.7455 15.0146 13.0169 15.0461 13.2052 15.1079C13.3948 15.1697 13.5422 15.2769 13.6486 15.4308C13.7562 15.5847 13.8089 15.7642 13.8089 15.9729C13.8089 16.1501 13.7726 16.3063 13.6989 16.4415H13.7001Z" fill="black"/>
<path d="M17.1371 13.4723C16.6376 13.4723 16.2141 13.6203 15.8678 13.9176C15.4514 14.2755 15.2443 14.8258 15.2443 15.5695C15.2443 16.2468 15.4186 16.7668 15.7672 17.127C16.1159 17.4872 16.5721 17.6667 17.1383 17.6667C17.4893 17.6667 17.8157 17.5851 18.1128 17.4207C18.4111 17.2564 18.6381 17.0267 18.7937 16.7306C18.9493 16.4345 19.0276 16.0288 19.0276 15.5124C19.0276 14.8747 18.851 14.3746 18.5 14.0144C18.1467 13.653 17.6928 13.4711 17.1395 13.4711L17.1371 13.4723ZM17.9865 16.7236C17.7595 16.9813 17.4764 17.1083 17.1371 17.1083C16.7979 17.1083 16.5089 16.9801 16.282 16.7248C16.0562 16.4706 15.9439 16.0848 15.9439 15.5707C15.9439 15.0566 16.0562 14.6742 16.282 14.4189C16.5089 14.1648 16.7932 14.0377 17.1371 14.0377C17.4811 14.0377 17.7572 14.1659 17.9841 14.4212C18.2111 14.6754 18.3257 15.0519 18.3257 15.5485C18.3257 16.0743 18.2123 16.466 17.9876 16.7236H17.9865Z" fill="black"/>
<path d="M20.497 12.0302H19.8126V17.5816H20.497V12.0302Z" fill="black"/>
<path d="M23.2111 13.4723C22.6542 13.4723 22.2027 13.6588 21.8529 14.0319C21.5042 14.4037 21.3299 14.9283 21.3299 15.6033C21.3299 16.2783 21.5019 16.7644 21.847 17.1246C22.1921 17.486 22.6589 17.6679 23.2473 17.6679C23.7153 17.6679 24.099 17.5536 24.4008 17.3275C24.7015 17.1013 24.9074 16.7819 25.0185 16.3727L24.3107 16.2795C24.2066 16.5686 24.0674 16.7796 23.8896 16.9113C23.7129 17.043 23.4989 17.1095 23.2485 17.1095C22.9128 17.1095 22.6308 16.9917 22.4074 16.7574C22.1816 16.5231 22.0576 16.185 22.0307 15.7444H25.0384C25.0407 15.6639 25.0419 15.6033 25.0419 15.5637C25.0419 14.9004 24.8711 14.3863 24.5295 14.0202C24.1879 13.6542 23.7492 13.4723 23.2111 13.4723ZM22.0693 15.186C22.0927 14.8339 22.2108 14.5541 22.4238 14.3443C22.6378 14.1345 22.9011 14.0307 23.2146 14.0307C23.5609 14.0307 23.844 14.1624 24.0604 14.4247C24.202 14.5938 24.2885 14.8479 24.3189 15.186H22.0693Z" fill="black"/>
<path d="M27.0728 16.9999C26.9722 16.9999 26.8938 16.9836 26.8388 16.9509C26.7838 16.9171 26.7452 16.8728 26.7218 16.818C26.6973 16.7621 26.6856 16.6374 26.6856 16.4415V14.0843H27.3699V13.5574H26.6856V12.1526L26.0012 12.5618V13.5574H25.4958V14.0843H26.0012V16.403C26.0012 16.8122 26.0281 17.0815 26.0843 17.2097C26.1404 17.338 26.2363 17.4394 26.372 17.5187C26.5101 17.5979 26.7019 17.6364 26.9488 17.6364C27.0997 17.6364 27.2717 17.6154 27.4635 17.5758L27.3699 16.9731C27.2471 16.9917 27.1465 16.9999 27.0716 16.9999H27.0728Z" fill="black"/>
<path d="M29.6828 13.4723C29.1832 13.4723 28.7597 13.6203 28.4135 13.9176C27.997 14.2755 27.7899 14.8258 27.7899 15.5695C27.7899 16.2468 27.9642 16.7668 28.3128 17.127C28.6615 17.4872 29.1177 17.6667 29.6839 17.6667C30.0349 17.6667 30.3613 17.5851 30.6584 17.4207C30.9567 17.2564 31.1837 17.0267 31.3393 16.7306C31.4949 16.4345 31.5733 16.0288 31.5733 15.5124C31.5733 14.8747 31.3966 14.3746 31.0457 14.0144C30.6924 13.653 30.2384 13.4711 29.6851 13.4711L29.6828 13.4723ZM30.5321 16.7236C30.3051 16.9813 30.022 17.1083 29.6828 17.1083C29.3435 17.1083 29.0545 16.9801 28.8276 16.7248C28.6018 16.4706 28.4895 16.0848 28.4895 15.5707C28.4895 15.0566 28.6018 14.6742 28.8276 14.4189C29.0545 14.1648 29.3388 14.0377 29.6828 14.0377C30.0267 14.0377 30.3028 14.1659 30.5297 14.4212C30.7567 14.6754 30.8713 15.0519 30.8713 15.5485C30.8713 16.0743 30.759 16.466 30.5332 16.7236H30.5321Z" fill="black"/>
</g>
</g>
</svg>
