<svg width="42" height="25" viewBox="0 0 42 25" fill="none" xmlns="http://www.w3.org/2000/svg">
<g id="Group 36">
<rect id="Rectangle 66" x="0.539795" width="41.0583" height="24.635" rx="2" fill="white"/>
<g id="Group 30">
<path id="Vector" d="M14.5216 6.84277H11.8265C10.6357 6.89821 9.66234 7.37043 9.38129 8.34423C9.23473 8.85209 9.15408 9.40985 9.03949 9.9363C8.4569 12.6132 7.94032 15.3638 7.38306 17.9872H28.3647C29.9868 17.9872 31.1005 17.6497 31.4015 16.3822C31.5413 15.7934 31.6753 15.1264 31.8091 14.4795C32.3306 11.9571 32.8525 9.43493 33.3866 6.84277H14.5216Z" fill="black"/>
<path id="Vector_2" d="M25.2417 13.8249C24.9562 14.0997 24.1549 14.1778 24.2368 13.5209C24.3049 12.9753 24.909 12.8594 25.5637 12.9382C25.5151 13.2366 25.4592 13.6155 25.2417 13.8249ZM24.3399 11.6967C24.3126 11.8473 24.2708 11.9835 24.2368 12.1274C24.5637 12.0469 25.5816 11.7997 25.6797 12.2287C25.7123 12.3713 25.6561 12.5227 25.6153 12.6341C24.6948 12.5484 23.9446 12.6988 23.7473 13.3435C23.6151 13.7754 23.7621 14.2004 24.0436 14.319C24.5858 14.5474 25.2453 14.2857 25.4736 13.9263C25.4499 14.0507 25.4274 14.1764 25.4349 14.3316H25.9116C25.9166 13.8828 25.9831 13.5194 26.0533 13.1155C26.1132 12.7715 26.2258 12.431 26.2079 12.1274C26.1669 11.4322 24.9956 11.6781 24.3399 11.6967ZM29.1194 14.0402C28.7465 14.0481 28.5611 13.8212 28.5525 13.4449C28.5377 12.7859 28.8317 12.0537 29.4286 11.9881C29.7065 11.9575 29.9077 12.0211 30.1114 12.0894C29.9245 12.8297 29.9919 14.0219 29.1194 14.0402ZM30.3561 10.5566C30.3087 10.966 30.2452 11.3596 30.163 11.7347C28.8041 11.3118 27.9707 12.2949 27.9857 13.5082C27.9886 13.7429 28.0297 13.9756 28.179 14.1416C28.4362 14.4276 29.1727 14.4961 29.5445 14.2556C29.6166 14.2091 29.6901 14.1244 29.7378 14.0656C29.7736 14.0214 29.8306 13.9056 29.8408 13.9389C29.8213 14.0675 29.7921 14.1866 29.7893 14.3316H30.2918C30.3886 12.9658 30.688 11.7992 30.9101 10.5566H30.3561ZM16.1722 13.8376C15.8758 14.1462 15.1472 14.1415 15.09 13.6222C15.0651 13.3962 15.1508 13.1593 15.1931 12.9255C15.2359 12.6889 15.2667 12.4618 15.309 12.2541C15.6009 11.9036 16.4587 11.8613 16.5458 12.4441C16.6213 12.9502 16.4176 13.582 16.1722 13.8376ZM16.6102 11.6967C16.1414 11.5236 15.5699 11.7303 15.3222 11.9269C15.323 11.9356 15.3163 11.9368 15.309 11.9374C15.3132 11.9339 15.3178 11.9304 15.3222 11.9269C15.3221 11.9262 15.3221 11.9256 15.3219 11.9248C15.3261 11.8402 15.3564 11.7813 15.3606 11.6967H14.8839C14.6853 12.9962 14.4497 14.2593 14.2011 15.5097H14.755C14.8352 15.0227 14.8882 14.509 14.9998 14.0529C15.1264 14.5326 15.9524 14.4409 16.301 14.2556C17.0202 13.8732 17.575 12.0531 16.6102 11.6967ZM19.2383 12.6088H17.9371C17.9783 12.3147 18.2474 11.9914 18.6714 11.9754C19.0705 11.9604 19.3562 12.1195 19.2383 12.6088ZM18.7101 11.6461C18.3098 11.6764 17.9715 11.7897 17.731 12.0387C17.4361 12.3443 17.1972 13.0198 17.2672 13.6349C17.367 14.5125 18.4783 14.481 19.3671 14.2683C19.3822 14.1143 19.4202 13.9826 19.4444 13.8376C19.0783 13.9723 18.4425 14.1604 18.066 13.9263C17.7816 13.7495 17.78 13.3019 17.8727 12.9128C18.4701 12.8941 19.091 12.8977 19.6892 12.9128C19.7271 12.6371 19.8357 12.3365 19.7407 12.0641C19.6153 11.7046 19.1667 11.6115 18.7101 11.6461ZM13.8404 11.6967C13.8254 11.6989 13.8264 11.7168 13.8275 11.7347C13.7054 12.6323 13.5402 13.4876 13.3637 14.3316H13.9177C14.0508 13.428 14.2032 12.5434 14.3943 11.6967H13.8404ZM28.2949 11.7094C27.8053 11.4687 27.3977 11.8726 27.2386 12.1147C27.2839 11.9905 27.2865 11.8241 27.3287 11.6967H26.8391C26.7072 12.6015 26.548 13.4795 26.3625 14.3316H26.9293C26.9329 13.9824 27.0027 13.7241 27.0581 13.3815C27.1766 12.6503 27.3505 11.8483 28.2176 12.0894C28.2464 11.9657 28.2584 11.8255 28.2949 11.7094ZM22.0725 13.7109C22.0215 13.5812 22.0082 13.367 22.021 13.2042C22.0496 12.8381 22.1852 12.3925 22.3946 12.1908C22.6834 11.9123 23.2538 11.9584 23.7086 12.1147C23.7227 11.964 23.7535 11.8295 23.773 11.6841C23.027 11.5643 22.319 11.6388 21.9437 12.0261C21.5763 12.4052 21.3354 13.2766 21.5056 13.8249C21.705 14.4665 22.5986 14.5014 23.3222 14.2556C23.3541 14.1267 23.3711 13.9829 23.3995 13.8502C23.0041 14.0522 22.2482 14.1572 22.0725 13.7109ZM21.7633 11.6967C21.2721 11.5017 20.886 11.8313 20.707 12.1401C20.7475 12.0027 20.7643 11.8418 20.7971 11.6967H20.3075C20.1879 12.6094 20.0115 13.4662 19.8438 14.3316H20.3978C20.4754 13.8179 20.5089 13.1255 20.6812 12.6341C20.8188 12.2415 21.1791 11.907 21.6989 12.0894C21.7062 11.9446 21.7484 11.834 21.7633 11.6967ZM12.8355 10.6326C12.7564 11.1375 12.6673 11.6326 12.5779 12.1274C12.004 12.1334 11.418 12.1553 10.8645 12.1147C10.969 11.6307 11.044 11.1175 11.1478 10.6326H10.5295C10.3081 11.8676 10.1068 13.1221 9.85962 14.3316H10.4908C10.5899 13.7111 10.6825 13.0844 10.8129 12.4948C11.3511 12.4818 11.9962 12.459 12.5134 12.5075C12.4068 13.1205 12.2779 13.7115 12.1785 14.3316H12.8098C13.0126 13.0785 13.2263 11.8361 13.4797 10.6326H12.8355ZM14.4072 11.19C14.5177 11.1153 14.6599 10.7745 14.4974 10.6326C14.446 10.5877 14.3598 10.5747 14.2398 10.5947C14.1284 10.6132 14.0643 10.6503 14.0208 10.7086C13.9507 10.8024 13.8866 11.085 13.995 11.19C14.1005 11.2923 14.337 11.2376 14.4072 11.19Z" fill="white"/>
</g>
</g>
</svg>
