<svg width="42" height="25" viewBox="0 0 42 25" fill="none" xmlns="http://www.w3.org/2000/svg">
<g id="Group 33">
<rect id="Rectangle 68" x="0.671875" width="41.0583" height="24.635" rx="2" fill="white"/>
<g id="Group 31">
<path id="Intersect" fill-rule="evenodd" clip-rule="evenodd" d="M21.2011 17.6396C19.7184 16.362 18.7681 14.3856 18.7681 12.1652C18.7681 9.9448 19.7184 7.96843 21.2012 6.69077C22.6839 7.96843 23.6342 9.9448 23.6342 12.1652C23.6342 14.3856 22.6839 16.362 21.2011 17.6396Z" fill="black"/>
<path id="Left" d="M19.9845 6.53009C18.4593 7.87299 17.4881 9.89804 17.4881 12.1645C17.4881 14.4309 18.4593 16.456 19.9845 17.7989C19.0037 18.4651 17.8363 18.8555 16.5798 18.8555C13.082 18.8555 10.2522 15.8631 10.2522 12.1645C10.2522 8.46586 13.082 5.47351 16.5798 5.47351C17.8363 5.47351 19.0037 5.86389 19.9845 6.53009Z" fill="black"/>
<path id="Right" d="M25.8224 5.47351C29.3202 5.47351 32.1501 8.46586 32.1501 12.1645C32.1501 15.8445 29.3202 18.8555 25.8224 18.8555C24.5659 18.8555 23.3985 18.4651 22.4177 17.7989C23.9429 16.456 24.9141 14.4309 24.9141 12.1645C24.9141 9.89804 23.9429 7.87299 22.4177 6.53009C23.3985 5.86389 24.5659 5.47351 25.8224 5.47351Z" fill="black"/>
</g>
</g>
</svg>
