<svg width="42" height="25" viewBox="0 0 42 25" fill="none" xmlns="http://www.w3.org/2000/svg">
<g id="Group 38">
<rect id="Rectangle 64" width="41.0583" height="24.635" rx="2" fill="white"/>
<g id="Group 29">
<path id="Vector" d="M17.3372 16.386V10.5247C17.3372 10.0069 17.5428 9.51028 17.9089 9.14413C18.275 8.77797 18.7715 8.57227 19.2893 8.57227L21.0193 8.57468C21.5357 8.57572 22.0306 8.78164 22.3953 9.14724C22.76 9.51284 22.9649 10.0082 22.9648 10.5247V11.772C22.9648 12.2899 22.7591 12.7865 22.393 13.1527C22.027 13.5189 21.5304 13.7247 21.0127 13.7248H18.5674" stroke="black" stroke-width="0.26" stroke-linecap="round" stroke-linejoin="round"/>
<path id="Vector_2" d="M23.4485 8.57227H24.199C24.4115 8.57227 24.6153 8.6567 24.7656 8.80698C24.9159 8.95727 25.0003 9.16111 25.0003 9.37364V13.7517" stroke="black" stroke-width="0.26" stroke-linecap="round" stroke-linejoin="round"/>
<path id="Vector_3" d="M24.8392 7.8928L24.4989 7.55215C24.4788 7.53209 24.4629 7.50827 24.452 7.48205C24.4411 7.45582 24.4355 7.42772 24.4355 7.39933C24.4355 7.37095 24.4411 7.34284 24.452 7.31662C24.4629 7.29039 24.4788 7.26657 24.4989 7.24651L24.8392 6.90616C24.8798 6.86557 24.9348 6.84277 24.9923 6.84277C25.0497 6.84277 25.1047 6.86557 25.1453 6.90616L25.4853 7.24651C25.5054 7.26657 25.5213 7.29039 25.5322 7.31662C25.5431 7.34284 25.5487 7.37095 25.5487 7.39933C25.5487 7.42772 25.5431 7.45582 25.5322 7.48205C25.5213 7.50827 25.5054 7.53209 25.4853 7.55215L25.1438 7.8928C25.1238 7.91289 25.0999 7.92883 25.0737 7.9397C25.0474 7.95057 25.0193 7.95617 24.9909 7.95617C24.9625 7.95617 24.9344 7.95057 24.9081 7.9397C24.8819 7.92883 24.858 7.91289 24.8379 7.8928" fill="black"/>
<path id="Vector_4" d="M26.4412 8.56543H27.1854C27.5682 8.56527 27.9354 8.71722 28.2062 8.98784L29.9471 10.7291C30.0007 10.7828 30.0644 10.8253 30.1345 10.8544C30.2045 10.8834 30.2796 10.8984 30.3555 10.8984C30.4313 10.8984 30.5064 10.8834 30.5765 10.8544C30.6465 10.8253 30.7102 10.7828 30.7638 10.7291L32.4984 8.99448C32.6324 8.86046 32.7915 8.75418 32.9666 8.6817C33.1417 8.60922 33.3294 8.57196 33.5189 8.57207H34.124" stroke="black" stroke-width="0.26" stroke-linecap="round" stroke-linejoin="round"/>
<path id="Vector_5" d="M26.4412 13.7116H27.1854C27.5682 13.7117 27.9354 13.5598 28.2062 13.2892L29.9471 11.548C30.0555 11.4397 30.2023 11.3789 30.3555 11.3789C30.5086 11.3789 30.6554 11.4397 30.7638 11.548L32.4984 13.2829C32.7691 13.5534 33.1362 13.7054 33.5189 13.7053H34.124" stroke="black" stroke-width="0.26" stroke-linecap="round" stroke-linejoin="round"/>
<g id="Vector_6">
<path d="M12.9 14.825C12.7164 14.8257 12.5345 14.7899 12.3647 14.7198C12.195 14.6498 12.0408 14.5468 11.9111 14.4168L10.4828 12.9872C10.4322 12.9389 10.365 12.9119 10.2951 12.9119C10.2252 12.9119 10.158 12.9389 10.1075 12.9872L8.67425 14.4207C8.54464 14.5509 8.39052 14.6541 8.22078 14.7244C8.05105 14.7947 7.86908 14.8306 7.68538 14.8301H7.40574L9.21575 16.6405C9.48721 16.9114 9.85505 17.0636 10.2386 17.0636C10.6221 17.0636 10.9899 16.9114 11.2614 16.6405L13.075 14.8262L12.9 14.825Z" fill="black"/>
<path d="M7.68569 9.77272C7.86939 9.77223 8.05136 9.80816 8.2211 9.87844C8.39083 9.94872 8.54495 10.0519 8.67455 10.1822L10.1078 11.616C10.1576 11.6656 10.2251 11.6935 10.2954 11.6935C10.3658 11.6935 10.4332 11.6656 10.4831 11.616L11.9111 10.1876C12.0406 10.0572 12.1947 9.95386 12.3645 9.88352C12.5342 9.81319 12.7163 9.77727 12.9 9.77785H13.072L11.2583 7.96389C11.124 7.82951 10.9646 7.72292 10.7891 7.6502C10.6136 7.57747 10.4255 7.54004 10.2355 7.54004C10.0456 7.54004 9.85747 7.57747 9.68197 7.6502C9.50648 7.72292 9.34703 7.82951 9.21273 7.96389L7.40574 9.77272H7.68569Z" fill="black"/>
<path d="M14.5722 11.2783L13.4762 10.1822C13.4515 10.1923 13.4251 10.1976 13.3984 10.1979H12.9C12.6407 10.1985 12.3921 10.3015 12.2083 10.4845L10.7802 11.912C10.6516 12.0404 10.4773 12.1125 10.2956 12.1125C10.1138 12.1125 9.93954 12.0404 9.81093 11.912L8.3774 10.4791C8.19364 10.296 7.94505 10.1929 7.68567 10.1921H7.07389C7.04868 10.1916 7.02376 10.1866 7.00029 10.1774L5.89739 11.2783C5.6265 11.5499 5.47437 11.9178 5.47437 12.3013C5.47437 12.6849 5.6265 13.0528 5.89739 13.3243L6.99787 14.425C7.0213 14.4156 7.04625 14.4106 7.07148 14.4102H7.68567C7.94504 14.4095 8.19363 14.3064 8.3774 14.1233L9.81062 12.6898C10.0698 12.4309 10.5214 12.4309 10.7802 12.6898L12.2083 14.1179C12.3921 14.3008 12.6407 14.4039 12.9 14.4045H13.3984C13.4251 14.4047 13.4515 14.41 13.4762 14.4202L14.5722 13.324C14.7065 13.1897 14.8131 13.0302 14.8858 12.8547C14.9585 12.6792 14.9959 12.491 14.9959 12.301C14.9959 12.111 14.9585 11.9229 14.8858 11.7474C14.8131 11.5718 14.7065 11.4127 14.5722 11.2783Z" fill="black"/>
</g>
<path id="Vector_7" d="M18.8253 15.8867C18.7348 15.8907 18.6448 15.9044 18.5572 15.9275V16.2847C18.6242 16.3082 18.6948 16.3201 18.7659 16.3197C18.9451 16.3197 19.0299 16.2594 19.0299 16.1016C19.0299 15.9531 18.9605 15.8867 18.8253 15.8867ZM18.4968 16.5505V15.8436H18.546L18.5511 15.8738C18.6425 15.8495 18.7361 15.8344 18.8305 15.8288C18.8959 15.8242 18.9608 15.843 19.0136 15.8819C19.0739 15.932 19.0944 16.0129 19.0944 16.101C19.0944 16.1891 19.0643 16.2802 18.9798 16.3282C18.9153 16.3603 18.844 16.3762 18.7719 16.3743C18.6991 16.3739 18.6268 16.3628 18.5572 16.3414V16.5493L18.4968 16.5505Z" fill="black"/>
<path id="Vector_8" d="M19.5438 15.8843C19.365 15.8843 19.285 15.9404 19.285 16.0982C19.285 16.2506 19.3638 16.3194 19.5438 16.3194C19.7239 16.3194 19.8018 16.2639 19.8018 16.1064C19.8018 15.954 19.723 15.8843 19.5438 15.8843ZM19.7743 16.3194C19.714 16.3622 19.6349 16.3746 19.5438 16.3746C19.4527 16.3746 19.371 16.3613 19.3128 16.3194C19.2473 16.2732 19.2205 16.1987 19.2205 16.1025C19.2205 16.0062 19.2473 15.9314 19.3128 15.8843C19.371 15.8424 19.4509 15.8291 19.5438 15.8291C19.6368 15.8291 19.7149 15.8424 19.7743 15.8843C19.8407 15.9314 19.8663 16.008 19.8663 16.1013C19.8663 16.1945 19.8398 16.2732 19.7743 16.3194Z" fill="black"/>
<path id="Vector_9" d="M20.6223 16.3606L20.4225 15.9319H20.4186L20.2219 16.3606H20.1667L19.9556 15.8438H20.0219L20.199 16.2776H20.2032L20.3957 15.8438H20.4509L20.6482 16.2776H20.6524L20.8253 15.8438H20.8907L20.6778 16.3606H20.6223Z" fill="black"/>
<path id="Vector_10" d="M21.2753 15.8838C21.1094 15.8838 21.0533 15.9577 21.043 16.0648H21.5076C21.5024 15.9471 21.4421 15.8838 21.2753 15.8838ZM21.2732 16.3753C21.1739 16.3753 21.1094 16.3608 21.0581 16.3179C20.9978 16.2658 20.9775 16.19 20.9775 16.1031C20.9775 16.0162 21.005 15.932 21.0738 15.882C21.1339 15.8441 21.2043 15.8259 21.2753 15.8298C21.3476 15.8254 21.4196 15.8428 21.4819 15.8798C21.5564 15.9299 21.5709 16.018 21.5709 16.1182H21.0415C21.0436 16.2247 21.0783 16.3189 21.2789 16.3189C21.3686 16.3165 21.4579 16.3064 21.5459 16.2887V16.343C21.4565 16.3614 21.3656 16.372 21.2744 16.3747" fill="black"/>
<path id="Vector_11" d="M21.7441 16.3607V15.8439H21.793L21.7981 15.8741C21.9076 15.8463 21.9589 15.8291 22.0552 15.8291H22.0624V15.8864H22.0479C21.9671 15.8864 21.9179 15.8976 21.8045 15.9272V16.3601L21.7441 16.3607Z" fill="black"/>
<path id="Vector_12" d="M22.4127 15.8838C22.2471 15.8838 22.1907 15.9577 22.1805 16.0648H22.645C22.6399 15.9471 22.5796 15.8838 22.4127 15.8838ZM22.4106 16.3753C22.3114 16.3753 22.2471 16.3608 22.1958 16.3179C22.1355 16.2658 22.115 16.19 22.115 16.1031C22.115 16.0162 22.1427 15.932 22.2112 15.882C22.2714 15.8442 22.3418 15.826 22.4127 15.8298C22.4851 15.8254 22.5571 15.8428 22.6194 15.8798C22.6942 15.9299 22.7099 16.018 22.7099 16.1182H22.1783C22.1805 16.2247 22.2151 16.3189 22.4158 16.3189C22.5055 16.3165 22.595 16.3064 22.683 16.2887V16.343C22.5936 16.3614 22.5028 16.372 22.4115 16.3747" fill="black"/>
<path id="Vector_13" d="M23.3703 15.9176C23.3032 15.8942 23.2326 15.8824 23.1615 15.8829C22.9823 15.8829 22.8976 15.9432 22.8976 16.101C22.8976 16.2504 22.9672 16.3159 23.1021 16.3159C23.1926 16.3117 23.2825 16.2982 23.3703 16.2757V15.9176ZM23.3817 16.3587L23.3763 16.3285C23.285 16.3531 23.1914 16.3683 23.097 16.3738C23.0315 16.3787 22.9664 16.3598 22.9139 16.3204C22.8535 16.2703 22.833 16.1895 22.833 16.1017C22.833 16.0093 22.8632 15.9224 22.9476 15.8754C23.0122 15.8424 23.084 15.8263 23.1564 15.8283C23.2288 15.8293 23.3008 15.8403 23.3703 15.8609V15.624H23.4306V16.3587H23.3817Z" fill="black"/>
<path id="Vector_14" d="M24.3158 15.885C24.2252 15.889 24.1353 15.9026 24.0476 15.9257V16.2821C24.1146 16.3063 24.1852 16.3184 24.2564 16.318C24.4356 16.318 24.5204 16.2576 24.5204 16.0998C24.5204 15.9514 24.451 15.885 24.3158 15.885ZM24.4703 16.327C24.4059 16.3592 24.3346 16.375 24.2627 16.3732C24.184 16.3727 24.1059 16.3596 24.0313 16.3343L24.0283 16.3587H23.9873V15.624H24.0476V15.8705C24.1372 15.8476 24.2287 15.8333 24.3209 15.8277C24.3864 15.8231 24.4513 15.8419 24.5041 15.8808C24.5644 15.9309 24.5849 16.0117 24.5849 16.0998C24.5849 16.1879 24.5547 16.2791 24.4703 16.327Z" fill="black"/>
<path id="Vector_15" d="M24.6652 16.5572V16.5011C24.6954 16.5041 24.7225 16.5062 24.7418 16.5062C24.8166 16.5062 24.8625 16.4845 24.9035 16.3997L24.9231 16.3586L24.6516 15.8418H24.7216L24.953 16.288H24.9569L25.1768 15.8418H25.2456L24.9548 16.4223C24.9017 16.5276 24.8444 16.5623 24.7388 16.5623C24.7139 16.5622 24.689 16.5605 24.6643 16.5572" fill="black"/>
<path id="Vector_16" d="M26.079 16.0663H25.8787V16.2473H26.079C26.2171 16.2473 26.2693 16.2319 26.2693 16.1568C26.2693 16.0759 26.1975 16.0663 26.0778 16.0663M26.0416 15.7742H25.8781V15.9583H26.0428C26.1788 15.9583 26.2331 15.942 26.2331 15.8653C26.2331 15.7833 26.1643 15.7748 26.0416 15.7748M26.3529 16.3143C26.279 16.3614 26.19 16.3632 26.0274 16.3632H25.7212V15.6602H26.0201C26.1604 15.6602 26.2464 15.662 26.3179 15.7051C26.3416 15.7193 26.361 15.7398 26.3737 15.7644C26.3863 15.789 26.3919 15.8166 26.3897 15.8442C26.3897 15.9178 26.3595 15.967 26.279 15.9999V16.0038C26.3695 16.0243 26.4274 16.0705 26.4274 16.1698C26.4297 16.1981 26.4239 16.2265 26.4107 16.2517C26.3975 16.2769 26.3775 16.2979 26.3529 16.3122" fill="black"/>
<path id="Vector_17" d="M27.0397 16.1436C26.9794 16.1384 26.919 16.1354 26.8536 16.1354C26.7483 16.1354 26.7112 16.1568 26.7112 16.2051C26.7112 16.2534 26.7414 16.2745 26.8228 16.2745C26.896 16.2721 26.9687 16.262 27.0397 16.2443V16.1436ZM27.0699 16.3605L27.066 16.3303C26.9745 16.3561 26.8804 16.3713 26.7854 16.3756C26.7306 16.3793 26.6759 16.366 26.6288 16.3376C26.6086 16.3206 26.5929 16.2989 26.5831 16.2743C26.5734 16.2498 26.5698 16.2233 26.5728 16.197C26.5758 16.1708 26.5852 16.1457 26.6003 16.124C26.6153 16.1023 26.6355 16.0847 26.659 16.0727C26.7133 16.047 26.786 16.0449 26.8527 16.0449C26.9067 16.0449 26.9794 16.0479 27.0397 16.0521V16.0428C27.0397 15.9619 26.9866 15.9354 26.8412 15.9354C26.7851 15.9354 26.7163 15.9384 26.6509 15.9444V15.84C26.7236 15.834 26.8056 15.8301 26.8732 15.8301C26.9637 15.8301 27.0563 15.837 27.1145 15.8781C27.1728 15.9191 27.1851 15.9785 27.1851 16.0552V16.3611L27.0699 16.3605Z" fill="black"/>
<path id="Vector_18" d="M27.8589 16.3609V16.0758C27.8589 15.9817 27.811 15.9479 27.725 15.9479C27.6536 15.9511 27.5828 15.962 27.5138 15.9805V16.3612H27.3696V15.8441H27.4873L27.4924 15.877C27.5823 15.8505 27.6751 15.8347 27.7687 15.8299C27.8323 15.8248 27.8955 15.8438 27.9458 15.883C27.9865 15.9198 28.0019 15.9711 28.0019 16.0447V16.3609H27.8589Z" fill="black"/>
<path id="Vector_19" d="M28.4097 16.3746C28.343 16.3746 28.2703 16.3653 28.2173 16.3203C28.1539 16.269 28.1355 16.1885 28.1355 16.1013C28.1355 16.0195 28.162 15.9302 28.2408 15.8801C28.3053 15.8382 28.385 15.8291 28.4679 15.8291C28.5283 15.8291 28.5856 15.833 28.6489 15.8391V15.9498C28.5967 15.9447 28.5343 15.9407 28.4842 15.9407C28.347 15.9407 28.2824 15.9836 28.2824 16.1025C28.2824 16.2138 28.3307 16.2621 28.4432 16.2621C28.5161 16.2597 28.5887 16.2508 28.6601 16.2355V16.3417C28.5775 16.361 28.4932 16.372 28.4085 16.3746" fill="black"/>
<path id="Vector_20" d="M29.0877 15.9374C28.9505 15.9374 28.8901 15.9806 28.8901 16.0982C28.8901 16.2159 28.9505 16.266 29.0877 16.266C29.225 16.266 29.2832 16.2241 29.2832 16.1064C29.2832 15.9887 29.225 15.9374 29.0877 15.9374ZM29.3354 16.3203C29.272 16.3632 29.1891 16.3746 29.0877 16.3746C28.9864 16.3746 28.9016 16.3622 28.8391 16.3203C28.7673 16.2732 28.7417 16.1954 28.7417 16.1025C28.7417 16.0095 28.7673 15.9302 28.8391 15.8831C28.9016 15.8412 28.9842 15.8291 29.0877 15.8291C29.1912 15.8291 29.272 15.8412 29.3354 15.8831C29.4069 15.9302 29.4316 16.0092 29.4316 16.1013C29.4316 16.1933 29.406 16.2732 29.3354 16.3203Z" fill="black"/>
<path id="Vector_21" d="M30.2647 16.3744C30.1778 16.3744 30.0837 16.3599 30.0131 16.3017C29.9292 16.232 29.9036 16.1246 29.9036 16.009C29.9036 15.9055 29.9364 15.7827 30.0456 15.7112C30.1307 15.656 30.236 15.6445 30.3425 15.6445C30.4203 15.6445 30.5003 15.6497 30.5871 15.6569V15.7827C30.5126 15.7767 30.4203 15.7716 30.3488 15.7716C30.1491 15.7716 30.0644 15.8473 30.0644 16.009C30.0644 16.1707 30.1431 16.2474 30.2903 16.2474C30.3955 16.2437 30.5001 16.2297 30.6025 16.2054V16.3303C30.4916 16.356 30.3784 16.3707 30.2647 16.3744Z" fill="black"/>
<path id="Vector_22" d="M31.0263 15.922C30.9057 15.922 30.8604 15.9652 30.8511 16.0427H31.1992C31.195 15.9588 31.1458 15.922 31.0263 15.922ZM31.0046 16.3746C30.9198 16.3746 30.8429 16.3644 30.7856 16.3173C30.7283 16.2702 30.7026 16.1894 30.7026 16.1013C30.7026 16.0225 30.7283 15.9344 30.8001 15.8831C30.8634 15.8382 30.9443 15.8291 31.0263 15.8291C31.0999 15.8291 31.1868 15.8372 31.2502 15.8813C31.3331 15.9395 31.3407 16.0297 31.3407 16.136H30.8502C30.8532 16.215 30.8951 16.266 31.0405 16.266C31.1328 16.264 31.2249 16.2551 31.3159 16.2394V16.3408C31.2132 16.3603 31.1091 16.3716 31.0046 16.3746Z" fill="black"/>
<path id="Vector_23" d="M31.9837 16.3609V16.0758C31.9837 15.9817 31.9357 15.9479 31.8498 15.9479C31.7784 15.9511 31.7076 15.962 31.6386 15.9805V16.3612H31.4944V15.8441H31.612L31.6172 15.877C31.7071 15.8505 31.7999 15.8347 31.8935 15.8299C31.9571 15.8248 32.0203 15.8438 32.0706 15.883C32.1113 15.9198 32.1267 15.9711 32.1267 16.0447V16.3609H31.9837Z" fill="black"/>
<path id="Vector_24" d="M32.5379 16.3754C32.4682 16.3754 32.4049 16.3558 32.3702 16.3015C32.3417 16.2546 32.3285 16.2 32.3322 16.1452V15.9515H32.2278V15.8441H32.3322L32.3475 15.6875H32.4748V15.8441H32.6785V15.9515H32.4748V16.1175C32.4729 16.1509 32.4777 16.1843 32.489 16.2158C32.5044 16.2505 32.5382 16.2638 32.5834 16.2638C32.6181 16.2632 32.6526 16.2597 32.6866 16.2535V16.357C32.6375 16.3677 32.5875 16.3738 32.5373 16.3754" fill="black"/>
<path id="Vector_25" d="M32.8196 16.3604V15.8436H32.9372L32.9424 15.8764C33.0249 15.8484 33.1111 15.8326 33.1982 15.8294C33.2043 15.829 33.2104 15.829 33.2166 15.8294V15.9546C33.2003 15.9546 33.1807 15.9546 33.1665 15.9546C33.0981 15.9549 33.03 15.9638 32.9638 15.9811V16.3628L32.8196 16.3604Z" fill="black"/>
<path id="Vector_26" d="M33.7417 16.1436C33.6813 16.1384 33.621 16.1354 33.5552 16.1354C33.45 16.1354 33.4132 16.1568 33.4132 16.2051C33.4132 16.2534 33.4433 16.2745 33.5245 16.2745C33.5977 16.2721 33.6705 16.262 33.7417 16.2443V16.1436ZM33.7718 16.3605L33.7676 16.3303C33.6761 16.3561 33.582 16.3713 33.4871 16.3756C33.4322 16.3793 33.3776 16.366 33.3305 16.3376C33.3115 16.323 33.2963 16.304 33.2863 16.2822C33.2764 16.2605 33.2718 16.2366 33.2732 16.2127C33.2718 16.1832 33.2794 16.1541 33.295 16.1291C33.3105 16.1041 33.3333 16.0844 33.3604 16.0727C33.4147 16.047 33.4871 16.0449 33.5537 16.0449C33.608 16.0449 33.6807 16.0479 33.7411 16.0521V16.0428C33.7411 15.9619 33.6877 15.9354 33.5426 15.9354C33.4862 15.9354 33.4177 15.9384 33.3522 15.9444V15.84C33.4249 15.834 33.5067 15.8301 33.5742 15.8301C33.6647 15.8301 33.7574 15.837 33.8156 15.8781C33.8738 15.9191 33.8862 15.9785 33.8862 16.0552V16.3611L33.7718 16.3605Z" fill="black"/>
<path id="Vector_27" d="M34.0708 15.624H34.2153V16.3587H34.0708V15.624Z" fill="black"/>
</g>
</g>
</svg>
