<svg width="42" height="25" viewBox="0 0 42 25" fill="none" xmlns="http://www.w3.org/2000/svg">
<g id="Group 37">
<rect id="Rectangle 65" x="0.27002" width="41.0583" height="24.635" rx="2" fill="white"/>
<path id="Vector" d="M21.2695 11.2747C21.2539 12.6092 22.3668 13.3539 23.2052 13.7967C24.0666 14.251 24.3559 14.5423 24.3526 14.9486C24.346 15.5704 23.6655 15.8448 23.0285 15.8555C21.9172 15.8742 21.2712 15.5303 20.7575 15.2702L20.3572 17.3004C20.8725 17.5579 21.8268 17.7824 22.8164 17.7922C25.1392 17.7922 26.659 16.5494 26.6672 14.6225C26.6762 12.1771 23.5463 12.0417 23.5677 10.9486C23.5751 10.6172 23.8669 10.2636 24.5063 10.1736C24.8228 10.1281 25.6965 10.0934 26.6869 10.5878L27.0757 8.62349C26.5431 8.41325 25.8584 8.21191 25.0061 8.21191C22.8197 8.21191 21.2819 9.47158 21.2695 11.2747ZM30.8114 8.38118C30.3873 8.38118 30.0297 8.64932 29.8703 9.0609L26.5521 17.6479H28.8733L29.3352 16.2644H32.1717L32.4397 17.6479H34.4855L32.7002 8.38118H30.8114ZM31.1361 10.8845L31.806 14.3642H29.9714L31.1361 10.8845ZM18.4552 8.38118L16.6256 17.6479H18.8374L20.6662 8.38118H18.4552ZM15.1831 8.38118L12.8808 14.6884L11.9496 9.32548C11.8402 8.72683 11.4087 8.38118 10.9295 8.38118H7.16589L7.11328 8.65021C7.8859 8.83195 8.76373 9.12504 9.29553 9.43862C9.62102 9.63016 9.71389 9.79764 9.82075 10.2529L11.5846 17.6479H13.9222L17.5059 8.38118H15.1831Z" fill="black"/>
</g>
</svg>
